<svg width="880" height="725" viewBox="0 0 880 725" fill="none" xmlns="http://www.w3.org/2000/svg">
<path d="M544.376 145.269C621.355 178.962 730.363 167.731 796.666 206.478C862.97 245.225 886.007 333.95 878.703 418.744C871.96 502.976 834.313 583.84 769.695 624.833C704.516 665.826 612.365 667.511 542.69 676.495C473.015 684.919 425.254 701.204 370.751 713.558C316.247 725.912 254.439 734.335 219.039 705.696C183.64 677.057 174.65 611.356 134.193 558.008C93.7371 504.661 21.2528 463.668 4.39596 412.567C-13.0228 362.027 24.6241 300.818 59.4616 237.925C94.299 175.031 126.889 109.33 179.707 61.5979C231.963 14.4277 305.009 -15.896 364.008 8.81224C423.007 32.9589 467.397 111.576 544.376 145.269Z" fill="#6CB6F9"/>
</svg>
