<svg width="652" height="393" viewBox="0 0 652 393" fill="none" xmlns="http://www.w3.org/2000/svg">
<path d="M488.803 302.783H144.091C141.15 302.78 138.331 301.612 136.252 299.535C134.173 297.459 133.003 294.644 133 291.708V84.8656C133.002 82.7144 133.859 80.652 135.382 79.1308C136.906 77.6097 138.971 76.754 141.125 76.7515H491.628C493.82 76.754 495.921 77.6245 497.47 79.1719C499.02 80.7194 499.892 82.8175 499.894 85.0059V291.708C499.891 294.644 498.721 297.459 496.642 299.535C494.563 301.612 491.744 302.78 488.803 302.783Z" fill="#FBF1D9" fill-opacity="0.4"/>
<path d="M579.101 383.5L570.861 383.5L566.94 351.759L579.103 351.759L579.101 383.5Z" fill="#FFB8B8"/>
<path d="M581.203 391.477L554.632 391.476V391.141C554.632 389.784 554.899 388.441 555.419 387.188C555.939 385.935 556.701 384.797 557.661 383.838C558.621 382.879 559.761 382.118 561.016 381.599C562.271 381.08 563.616 380.813 564.974 380.813H564.975L581.203 380.814L581.203 391.477Z" fill="#2F2E41"/>
<path d="M612.71 383.5L604.469 383.5L600.549 351.759L612.711 351.759L612.71 383.5Z" fill="#FFB8B8"/>
<path d="M614.811 391.477L588.24 391.476V391.141C588.24 389.784 588.508 388.441 589.027 387.188C589.547 385.935 590.309 384.797 591.269 383.838C592.23 382.879 593.37 382.118 594.625 381.599C595.879 381.08 597.224 380.813 598.582 380.813H598.583L614.812 380.814L614.811 391.477Z" fill="#2F2E41"/>
<path d="M610.24 369.74L602.607 367.422C602.039 367.25 601.533 366.914 601.155 366.456C600.776 365.998 600.541 365.439 600.48 364.849L593.364 297.507C593.359 297.426 593.322 297.349 593.263 297.294C593.203 297.238 593.124 297.207 593.042 297.207C592.961 297.199 592.879 297.223 592.815 297.275C592.751 297.326 592.709 297.4 592.699 297.482L580.781 362.725C580.709 363.12 580.558 363.498 580.337 363.835C580.117 364.171 579.831 364.461 579.497 364.686C579.163 364.911 578.788 365.067 578.392 365.145C577.997 365.223 577.59 365.222 577.195 365.141L567.441 363.134C566.726 362.985 566.089 362.583 565.646 362.002C565.204 361.421 564.987 360.7 565.034 359.971L572.283 253.036L621.444 247.739L614.139 367.034C614.092 367.801 613.754 368.521 613.194 369.049C612.634 369.576 611.894 369.87 611.125 369.872C610.825 369.872 610.527 369.828 610.24 369.74Z" fill="#2F2E41"/>
<path d="M610.193 159.912C619.31 159.912 626.702 152.531 626.702 143.426C626.702 134.321 619.31 126.94 610.193 126.94C601.075 126.94 593.684 134.321 593.684 143.426C593.684 152.531 601.075 159.912 610.193 159.912Z" fill="#FFB8B8"/>
<path d="M572.207 253.664L582.866 186.641C583.433 183.078 584.753 179.676 586.739 176.661C588.725 173.647 591.331 171.089 594.384 169.159C597.436 167.229 600.866 165.97 604.444 165.466C608.021 164.962 611.666 165.224 615.134 166.236C621.198 167.988 626.39 171.934 629.696 177.303C633.003 182.673 634.186 189.081 633.014 195.275L621.862 255.13L572.207 253.664Z" fill="white"/>
<path d="M614.75 265.656C615.574 265.113 616.27 264.395 616.786 263.554C617.303 262.713 617.629 261.769 617.741 260.789C617.853 259.808 617.748 258.815 617.434 257.88C617.12 256.944 616.605 256.088 615.924 255.373L626.945 234.061L614.534 235.383L605.971 255.419C604.843 256.641 604.204 258.233 604.174 259.894C604.144 261.556 604.725 263.17 605.807 264.432C606.889 265.694 608.397 266.515 610.045 266.741C611.694 266.967 613.367 266.581 614.75 265.656V265.656Z" fill="#FFB8B8"/>
<path d="M617.11 251.614C616.5 251.528 615.931 251.258 615.479 250.841L611.262 246.951C610.806 246.528 610.492 245.976 610.36 245.37C610.229 244.763 610.288 244.13 610.528 243.558L618.955 223.61L617.76 184.196C617.932 182.929 618.352 181.708 618.996 180.603C619.641 179.499 620.497 178.532 621.516 177.757C622.535 176.983 623.697 176.417 624.935 176.092C626.174 175.767 627.464 175.688 628.733 175.861C630.001 176.034 631.223 176.454 632.329 177.099C633.435 177.744 634.402 178.6 635.176 179.618C635.951 180.637 636.516 181.797 636.841 183.034C637.166 184.271 637.243 185.559 637.069 186.826L639.113 211.603C639.735 219.122 637.6 226.612 633.105 232.677L619.963 250.419C619.71 250.76 619.388 251.044 619.018 251.253C618.648 251.462 618.239 251.59 617.816 251.63C617.58 251.653 617.343 251.647 617.11 251.614Z" fill="white"/>
<path d="M515.122 134.444C515.302 135.414 515.692 136.333 516.266 137.137C516.84 137.94 517.584 138.608 518.444 139.093C519.305 139.578 520.261 139.869 521.247 139.945C522.232 140.021 523.222 139.881 524.147 139.533L539.503 157.978L543.122 146.049L527.985 130.362C527.298 128.849 526.079 127.641 524.559 126.965C523.039 126.29 521.323 126.195 519.738 126.698C518.152 127.201 516.807 128.267 515.956 129.695C515.105 131.123 514.808 132.813 515.122 134.444Z" fill="#FFB8B8"/>
<path d="M527.151 142.089C527.468 141.562 527.938 141.144 528.499 140.891L533.731 138.53C534.298 138.276 534.93 138.202 535.54 138.318C536.151 138.433 536.711 138.734 537.145 139.178L552.254 154.705L589.066 168.973C590.168 169.625 591.13 170.487 591.898 171.511C592.666 172.534 593.224 173.699 593.54 174.938C593.857 176.177 593.926 177.466 593.744 178.732C593.561 179.998 593.13 181.215 592.476 182.314C591.822 183.414 590.957 184.374 589.932 185.139C588.906 185.904 587.739 186.461 586.498 186.775C585.257 187.09 583.966 187.158 582.698 186.974C581.431 186.79 580.212 186.358 579.112 185.704L555.468 177.923C548.291 175.563 542.217 170.68 538.376 164.182L527.14 145.179C526.924 144.814 526.787 144.407 526.739 143.985C526.691 143.564 526.732 143.137 526.86 142.732C526.931 142.507 527.029 142.291 527.151 142.089Z" fill="white"/>
<path opacity="0.1" d="M623.583 200.592L622.911 222.071L610.528 243.558L620.868 219.613L623.583 200.592Z" fill="black"/>
<path d="M608.301 146.525C607.264 146.659 606.214 146.413 605.345 145.833C604.476 145.252 603.847 144.377 603.576 143.368C603.314 142.208 602.741 141.14 601.918 140.28C601.095 139.42 600.053 138.8 598.904 138.486C595.875 137.795 592.174 139.219 589.955 136.927C589.48 136.404 589.136 135.776 588.952 135.094C588.768 134.412 588.748 133.696 588.896 133.006C589.305 130.779 590.899 129.097 592.635 127.752C596.288 124.934 600.708 123.284 605.316 123.019C607.702 122.95 610.089 123.069 612.455 123.374C614.933 123.53 617.384 123.977 619.757 124.706C622.461 125.725 624.864 127.408 626.744 129.6C628.624 131.791 629.92 134.421 630.513 137.245C631.056 140.078 630.972 142.995 630.269 145.793C629.566 148.59 628.26 151.201 626.442 153.442C624.266 156.148 621.459 158.282 618.268 159.657C617.508 160.015 616.637 160.059 615.844 159.78C613.856 158.99 614.181 156.531 615.087 154.891C616.057 153.136 617.55 151.437 616.77 149.301C616.379 148.31 615.628 147.504 614.668 147.041C612.692 146.035 610.481 146.273 608.357 146.518L608.301 146.525Z" fill="#2F2E41"/>
<path d="M650.651 392.443H521.595C521.417 392.443 521.246 392.372 521.12 392.246C520.994 392.121 520.923 391.95 520.923 391.772C520.923 391.594 520.994 391.423 521.12 391.297C521.246 391.171 521.417 391.101 521.595 391.101H650.651C650.829 391.101 651 391.171 651.126 391.297C651.252 391.423 651.323 391.594 651.323 391.772C651.323 391.95 651.252 392.121 651.126 392.246C651 392.372 650.829 392.443 650.651 392.443Z" fill="#CCCCCC"/>
<path d="M359.783 21.6096C364.836 32.346 354.13 35.3871 341.867 41.1417C329.603 46.8963 320.426 53.1852 315.374 42.4488C310.322 31.7124 306.223 10.4025 323.571 2.26167C341.518 -6.15964 354.731 10.8732 359.783 21.6096Z" fill="#2F2E41"/>
<path d="M334.762 42.7239C343.88 42.7239 351.271 35.3428 351.271 26.2378C351.271 17.1328 343.88 9.75171 334.762 9.75171C325.644 9.75171 318.253 17.1328 318.253 26.2378C318.253 35.3428 325.644 42.7239 334.762 42.7239Z" fill="#FFB8B8"/>
<path d="M416.551 99.3502C415.98 98.6051 415.408 97.8735 414.83 97.162C414.084 96.2357 413.334 95.3385 412.579 94.4704C404.022 84.61 394.921 78.4011 384.899 77.7366H384.886L384.738 77.7232L364.767 97.162L357.979 103.767L358.127 104.129L361.79 113.238H425.975C423.083 108.445 419.937 103.809 416.551 99.3502Z" fill="#2F2E41"/>
<path d="M316.81 32.875L322.719 30.1019L321.896 21.5885L325.848 28.6338L328.672 27.3084L328.192 22.3422L330.497 26.452L351.486 16.6033C349.514 12.4142 345.957 9.17869 341.597 7.60849C337.237 6.03828 332.431 6.26203 328.236 8.2305L325.194 9.65786C320.999 11.6263 317.759 15.1783 316.187 19.5324C314.614 23.8864 314.838 28.6859 316.81 32.875Z" fill="#2F2E41"/>
<path d="M426.386 88.5434C425.849 87.6722 425.14 86.9194 424.302 86.3309C423.464 85.7423 422.515 85.3304 421.513 85.1201C421.145 85.043 420.772 84.9959 420.397 84.9792L369.184 39.255C368.178 38.2225 366.837 37.5823 365.4 37.4494C365.117 37.4169 364.831 37.4079 364.546 37.4226C363.365 37.4762 362.225 37.8725 361.265 38.5629C360.305 39.2534 359.568 40.2081 359.143 41.3104C358.718 42.4127 358.624 43.6148 358.872 44.7697C359.12 45.9245 359.7 46.9821 360.54 47.8132L380.147 64.8826L412.344 92.9064C412.371 93.4342 412.449 93.9581 412.579 94.4704C412.965 95.9544 413.793 97.2864 414.954 98.2897C416.114 99.2931 417.553 99.9204 419.079 100.089C420.471 100.251 421.88 100.018 423.146 99.4173C424.149 98.9487 425.039 98.2686 425.754 97.4238C425.828 97.3365 425.895 97.256 425.962 97.162C426.902 95.9389 427.446 94.4586 427.522 92.9187C427.598 91.3788 427.201 89.8525 426.386 88.5434H426.386Z" fill="#FFB8B8"/>
<path d="M384.9 77.7366L380.147 64.8826L372.458 44.061C371.903 42.5461 371.014 41.1753 369.856 40.0505C368.698 38.9257 367.301 38.0757 365.77 37.5635C365.649 37.5232 365.521 37.483 365.4 37.4494C363.916 36.9996 362.353 36.876 360.816 37.0868C359.28 37.2977 357.808 37.8381 356.501 38.671L330.602 55.0759C328.23 56.5748 326.535 58.9358 325.874 61.66C325.213 64.3841 325.638 67.2582 327.06 69.6751C330.298 75.2676 333.828 80.6874 337.633 85.9121C340.651 90.0134 346.27 90.4497 347.245 97.162H366.341L385.673 79.8308L384.9 77.7366Z" fill="white"/>
<path d="M154.845 291.708H478.049C480.901 291.708 483.637 290.576 485.653 288.562C487.67 286.548 488.803 283.816 488.803 280.968V105.409C488.803 102.561 487.67 99.8292 485.653 97.8151C483.637 95.801 480.901 94.6696 478.049 94.6696H154.845C151.993 94.6696 149.258 95.801 147.241 97.8151C145.224 99.8292 144.091 102.561 144.091 105.409V280.968C144.091 283.816 145.224 286.548 147.241 288.562C149.258 290.576 151.993 291.708 154.845 291.708Z" fill="#FBF1D9"/>
<path d="M338.789 132.61L338.311 113.238L337.908 97.162L337.632 85.9122L337.088 63.9831C336.98 62.809 336.532 61.6917 335.799 60.7674C335.066 59.8431 334.08 59.1519 332.96 58.7783C331.84 58.4046 330.636 58.3645 329.494 58.663C328.351 58.9615 327.321 59.5856 326.528 60.4592C326.341 60.6588 326.173 60.8744 326.024 61.1036C325.196 62.2871 324.824 63.7289 324.975 65.1645L326.172 97.162L326.77 113.238L327.536 133.744C327.315 134.045 327.116 134.362 326.938 134.69C326.46 135.596 326.171 136.588 326.089 137.608C326.007 138.628 326.134 139.654 326.461 140.624C326.803 141.641 327.356 142.574 328.085 143.362C328.814 144.15 329.701 144.775 330.689 145.195C331.677 145.616 332.744 145.822 333.818 145.801C334.891 145.781 335.949 145.533 336.92 145.074C338.048 144.542 339.027 143.74 339.771 142.74C340.515 141.74 341 140.572 341.185 139.34C341.37 138.108 341.248 136.849 340.83 135.675C340.412 134.502 339.711 133.449 338.788 132.61H338.789Z" fill="#FFB8B8"/>
<rect x="97" y="141" width="34" height="31" rx="2" fill="#7D6DDF"/>
<path d="M67.999 183.283C76.601 183.283 83.5742 176.319 83.5742 167.729C83.5742 159.14 76.601 152.176 67.999 152.176C59.3971 152.176 52.4238 159.14 52.4238 167.729C52.4238 176.319 59.3971 183.283 67.999 183.283Z" fill="#A0616A"/>
<path d="M106.237 157.023C106.391 157.145 106.539 157.275 106.683 157.411C107.399 158.084 107.964 158.901 108.341 159.807C108.719 160.713 108.9 161.689 108.874 162.67C108.847 163.652 108.614 164.616 108.188 165.501C107.762 166.386 107.154 167.171 106.403 167.804C106.228 167.951 106.045 168.088 105.856 168.216L106.91 203.754C106.94 204.918 106.594 206.06 105.922 207.011C105.251 207.962 104.29 208.672 103.183 209.035L103.119 209.048L74.2232 212.121C73.4376 212.205 72.6432 212.132 71.886 211.907C71.1287 211.682 70.4236 211.31 69.8113 210.811C69.199 210.313 68.6916 209.698 68.3185 209.003C67.9454 208.307 67.7139 207.545 67.6374 206.76C67.561 205.975 67.6411 205.182 67.8731 204.428C68.105 203.674 68.4843 202.973 68.989 202.366C69.4937 201.759 70.1138 201.258 70.8135 200.892C71.5132 200.526 72.2786 200.301 73.0656 200.232L93.6636 198.42L97.2259 167.644C96.9928 167.438 96.7746 167.216 96.5728 166.979C95.4559 165.659 94.8701 163.972 94.9292 162.245C94.9883 160.518 95.688 158.874 96.8925 157.633C98.0969 156.392 99.7202 155.643 101.447 155.53C103.174 155.417 104.881 155.95 106.237 157.023H106.237Z" fill="#A0616A"/>
<path d="M93.6517 384.195H101.427L105.125 354.25H93.6504L93.6517 384.195Z" fill="#A0616A"/>
<path d="M91.6689 381.661L106.98 381.66H106.98C108.262 381.66 109.53 381.912 110.714 382.402C111.898 382.891 112.974 383.609 113.88 384.514C114.786 385.419 115.504 386.493 115.995 387.675C116.485 388.857 116.737 390.124 116.737 391.404V391.72L91.6694 391.721L91.6689 381.661Z" fill="#2F2E41"/>
<path d="M16.3779 373.461L23.0579 377.433L41.5781 353.593L31.7188 347.731L16.3779 373.461Z" fill="#A0616A"/>
<path d="M15.9723 370.27L29.1276 378.092L29.1282 378.092C30.2291 378.747 31.1902 379.612 31.9565 380.637C32.7227 381.663 33.2792 382.829 33.5942 384.069C33.9091 385.31 33.9763 386.6 33.792 387.866C33.6077 389.132 33.1754 390.35 32.5198 391.449L32.3576 391.721L10.8184 378.915L15.9723 370.27Z" fill="#2F2E41"/>
<path d="M103.261 373.619H94.5549C93.85 373.62 93.1697 373.36 92.6455 372.889C92.1214 372.418 91.7907 371.77 91.7174 371.07L82.9408 288.685C82.9186 288.478 82.8288 288.283 82.685 288.132C82.5413 287.981 82.3517 287.881 82.1455 287.848C81.9393 287.815 81.728 287.85 81.544 287.949C81.3601 288.048 81.2139 288.204 81.1278 288.394L65.2947 323.405L37.263 369.05C36.9001 369.635 36.3384 370.071 35.6806 370.276C35.0228 370.481 34.313 370.443 33.681 370.168L22.4826 365.248C22.1123 365.085 21.7809 364.846 21.5104 364.546C21.2399 364.245 21.0363 363.891 20.9134 363.506C20.7904 363.121 20.7508 362.714 20.7971 362.313C20.8434 361.912 20.9747 361.525 21.1821 361.178L46.951 318.09L54.8541 281.787C52.3684 266.043 63.0243 242.637 63.1323 242.402L63.1851 242.287L92.5369 230.831L92.6841 231.011C104.26 268.944 111.313 309.768 106.105 371.008C106.041 371.718 105.714 372.379 105.188 372.862C104.662 373.345 103.975 373.614 103.261 373.619Z" fill="#2F2E41"/>
<path d="M62.0029 246.123L61.8662 245.836C61.8008 245.699 55.2742 231.953 50.2431 217.261C49.2762 214.42 48.9106 211.409 49.1696 208.42C49.4287 205.43 50.3066 202.527 51.7478 199.894C53.2077 197.234 55.205 194.905 57.6131 193.056C60.0213 191.207 62.7877 189.877 65.7373 189.151C70.8578 187.926 76.2489 188.578 80.9283 190.989C85.6077 193.4 89.264 197.41 91.231 202.287C95.2218 212.253 93.95 222.89 92.753 231.256L92.7292 231.423L92.5765 231.496L62.0029 246.123Z" fill="#3F3D56"/>
<path d="M86.8839 158.944H62.1523V148.178C67.5806 146.025 72.8925 144.193 76.1035 148.178C78.9626 148.178 81.7047 149.312 83.7264 151.331C85.7481 153.35 86.8839 156.088 86.8839 158.944V158.944Z" fill="#2F2E41"/>
<path d="M60.7827 146.278C45.9977 146.278 41.8594 164.785 41.8594 175.226C41.8594 181.048 44.4963 183.131 48.6399 183.835L50.1032 176.042L53.5306 184.171C54.6946 184.176 55.9173 184.154 57.185 184.13L58.3471 181.741L60.9385 184.088C71.3173 184.103 79.7058 185.614 79.7058 175.226C79.7058 164.785 76.0765 146.278 60.7827 146.278Z" fill="#2F2E41"/>
<path d="M129.728 392.451H0.672166C0.493896 392.451 0.322928 392.38 0.196872 392.254C0.0708168 392.128 0 391.957 0 391.779C0 391.601 0.0708168 391.431 0.196872 391.305C0.322928 391.179 0.493896 391.108 0.672166 391.108H129.728C129.906 391.108 130.077 391.179 130.203 391.305C130.329 391.431 130.4 391.601 130.4 391.779C130.4 391.957 130.329 392.128 130.203 392.254C130.077 392.38 129.906 392.451 129.728 392.451Z" fill="#CCCCCC"/>
<path d="M126.502 166.991C126.596 167.163 126.682 167.34 126.762 167.521C127.16 168.419 127.363 169.39 127.359 170.372C127.355 171.354 127.143 172.323 126.737 173.217C126.332 174.111 125.741 174.91 125.005 175.56C124.269 176.211 123.403 176.698 122.465 176.991C122.247 177.059 122.025 177.115 121.801 177.159L108.963 210.321C108.539 211.405 107.776 212.323 106.787 212.94C105.799 213.556 104.638 213.838 103.476 213.743L103.411 213.731L75.586 205.366C74.8295 205.139 74.1256 204.764 73.515 204.263C72.9043 203.763 72.3991 203.146 72.0284 202.449C71.6577 201.753 71.4289 200.989 71.3552 200.204C71.2815 199.418 71.3644 198.626 71.5991 197.873C71.8337 197.119 72.2155 196.42 72.7224 195.815C73.2293 195.21 73.8513 194.711 74.5524 194.347C75.2534 193.983 76.0197 193.762 76.807 193.695C77.5943 193.629 78.3869 193.719 79.1391 193.96L98.8271 200.272L114.069 173.287C113.935 173.007 113.82 172.718 113.726 172.422C113.209 170.773 113.325 168.99 114.051 167.422C114.776 165.853 116.06 164.609 117.652 163.932C119.244 163.255 121.032 163.194 122.667 163.759C124.302 164.324 125.669 165.476 126.502 166.991H126.502Z" fill="#A0616A"/>
<path d="M181.396 176.526H183.142V189H181.396V183.24H175.294V189H173.548V176.526H175.294V181.728H181.396V176.526ZM187.805 189H186.131V179.64H187.805V189ZM186.959 177.948C186.659 177.948 186.401 177.852 186.185 177.66C185.981 177.456 185.879 177.186 185.879 176.85C185.879 176.514 185.981 176.25 186.185 176.058C186.401 175.854 186.659 175.752 186.959 175.752C187.259 175.752 187.511 175.854 187.715 176.058C187.931 176.25 188.039 176.514 188.039 176.85C188.039 177.186 187.931 177.456 187.715 177.66C187.511 177.852 187.259 177.948 186.959 177.948ZM192.448 186.948C192.46 187.044 192.466 187.14 192.466 187.236C192.466 187.32 192.466 187.41 192.466 187.506C192.466 188.262 192.352 189.006 192.124 189.738C191.908 190.482 191.608 191.19 191.224 191.862L189.928 191.448C190.228 190.836 190.426 190.212 190.522 189.576C190.618 188.952 190.666 188.364 190.666 187.812C190.666 187.656 190.66 187.506 190.648 187.362C190.648 187.218 190.642 187.08 190.63 186.948H192.448ZM200.846 179.64H204.392V181.044H200.846V185.364C200.846 185.832 200.882 186.222 200.954 186.534C201.026 186.834 201.134 187.074 201.278 187.254C201.422 187.422 201.602 187.542 201.818 187.614C202.034 187.686 202.286 187.722 202.574 187.722C203.078 187.722 203.48 187.668 203.78 187.56C204.092 187.44 204.308 187.356 204.428 187.308L204.752 188.694C204.584 188.778 204.29 188.88 203.87 189C203.45 189.132 202.97 189.198 202.43 189.198C201.794 189.198 201.266 189.12 200.846 188.964C200.438 188.796 200.108 188.55 199.856 188.226C199.604 187.902 199.424 187.506 199.316 187.038C199.22 186.558 199.172 186.006 199.172 185.382V177.03L200.846 176.742V179.64ZM206.522 189V175.32L208.196 175.032V179.82C208.508 179.7 208.838 179.61 209.186 179.55C209.546 179.478 209.9 179.442 210.248 179.442C210.992 179.442 211.61 179.55 212.102 179.766C212.594 179.97 212.984 180.264 213.272 180.648C213.572 181.02 213.782 181.47 213.902 181.998C214.022 182.526 214.082 183.108 214.082 183.744V189H212.408V184.104C212.408 183.528 212.366 183.036 212.282 182.628C212.21 182.22 212.084 181.89 211.904 181.638C211.724 181.386 211.484 181.206 211.184 181.098C210.884 180.978 210.512 180.918 210.068 180.918C209.888 180.918 209.702 180.93 209.51 180.954C209.318 180.978 209.132 181.008 208.952 181.044C208.784 181.068 208.628 181.098 208.484 181.134C208.352 181.17 208.256 181.2 208.196 181.224V189H206.522ZM216.283 184.338C216.283 183.51 216.403 182.79 216.643 182.178C216.883 181.554 217.201 181.038 217.597 180.63C217.993 180.222 218.449 179.916 218.965 179.712C219.481 179.508 220.009 179.406 220.549 179.406C221.809 179.406 222.775 179.802 223.447 180.594C224.119 181.374 224.455 182.568 224.455 184.176C224.455 184.248 224.455 184.344 224.455 184.464C224.455 184.572 224.449 184.674 224.437 184.77H218.029C218.101 185.742 218.383 186.48 218.875 186.984C219.367 187.488 220.135 187.74 221.179 187.74C221.767 187.74 222.259 187.692 222.655 187.596C223.063 187.488 223.369 187.386 223.573 187.29L223.807 188.694C223.603 188.802 223.243 188.916 222.727 189.036C222.223 189.156 221.647 189.216 220.999 189.216C220.183 189.216 219.475 189.096 218.875 188.856C218.287 188.604 217.801 188.262 217.417 187.83C217.033 187.398 216.745 186.888 216.553 186.3C216.373 185.7 216.283 185.046 216.283 184.338ZM222.709 183.42C222.721 182.664 222.529 182.046 222.133 181.566C221.749 181.074 221.215 180.828 220.531 180.828C220.147 180.828 219.805 180.906 219.505 181.062C219.217 181.206 218.971 181.398 218.767 181.638C218.563 181.878 218.401 182.154 218.281 182.466C218.173 182.778 218.101 183.096 218.065 183.42H222.709ZM230.316 179.442C230.46 179.442 230.622 179.454 230.802 179.478C230.994 179.49 231.18 179.514 231.36 179.55C231.54 179.574 231.702 179.604 231.846 179.64C232.002 179.664 232.116 179.688 232.188 179.712L231.9 181.17C231.768 181.122 231.546 181.068 231.234 181.008C230.934 180.936 230.544 180.9 230.064 180.9C229.752 180.9 229.44 180.936 229.128 181.008C228.828 181.068 228.63 181.11 228.534 181.134V189H226.86V180.036C227.256 179.892 227.748 179.76 228.336 179.64C228.924 179.508 229.584 179.442 230.316 179.442ZM233.281 184.338C233.281 183.51 233.401 182.79 233.641 182.178C233.881 181.554 234.199 181.038 234.595 180.63C234.991 180.222 235.447 179.916 235.963 179.712C236.479 179.508 237.007 179.406 237.547 179.406C238.807 179.406 239.773 179.802 240.445 180.594C241.117 181.374 241.453 182.568 241.453 184.176C241.453 184.248 241.453 184.344 241.453 184.464C241.453 184.572 241.447 184.674 241.435 184.77H235.027C235.099 185.742 235.381 186.48 235.873 186.984C236.365 187.488 237.133 187.74 238.177 187.74C238.765 187.74 239.257 187.692 239.653 187.596C240.061 187.488 240.367 187.386 240.571 187.29L240.805 188.694C240.601 188.802 240.241 188.916 239.725 189.036C239.221 189.156 238.645 189.216 237.997 189.216C237.181 189.216 236.473 189.096 235.873 188.856C235.285 188.604 234.799 188.262 234.415 187.83C234.031 187.398 233.743 186.888 233.551 186.3C233.371 185.7 233.281 185.046 233.281 184.338ZM239.707 183.42C239.719 182.664 239.527 182.046 239.131 181.566C238.747 181.074 238.213 180.828 237.529 180.828C237.145 180.828 236.803 180.906 236.503 181.062C236.215 181.206 235.969 181.398 235.765 181.638C235.561 181.878 235.399 182.154 235.279 182.466C235.171 182.778 235.099 183.096 235.063 183.42H239.707ZM245.838 188.028C245.838 188.352 245.73 188.634 245.514 188.874C245.298 189.114 245.004 189.234 244.632 189.234C244.26 189.234 243.966 189.114 243.75 188.874C243.534 188.634 243.426 188.352 243.426 188.028C243.426 187.704 243.534 187.422 243.75 187.182C243.966 186.942 244.26 186.822 244.632 186.822C245.004 186.822 245.298 186.942 245.514 187.182C245.73 187.422 245.838 187.704 245.838 188.028ZM250.268 188.028C250.268 188.352 250.16 188.634 249.944 188.874C249.728 189.114 249.434 189.234 249.062 189.234C248.69 189.234 248.396 189.114 248.18 188.874C247.964 188.634 247.856 188.352 247.856 188.028C247.856 187.704 247.964 187.422 248.18 187.182C248.396 186.942 248.69 186.822 249.062 186.822C249.434 186.822 249.728 186.942 249.944 187.182C250.16 187.422 250.268 187.704 250.268 188.028ZM254.697 188.028C254.697 188.352 254.589 188.634 254.373 188.874C254.157 189.114 253.863 189.234 253.491 189.234C253.119 189.234 252.825 189.114 252.609 188.874C252.393 188.634 252.285 188.352 252.285 188.028C252.285 187.704 252.393 187.422 252.609 187.182C252.825 186.942 253.119 186.822 253.491 186.822C253.863 186.822 254.157 186.942 254.373 187.182C254.589 187.422 254.697 187.704 254.697 188.028ZM181.882 210C181.678 209.46 181.486 208.932 181.306 208.416C181.126 207.888 180.94 207.354 180.748 206.814H175.096L173.962 210H172.144C172.624 208.68 173.074 207.462 173.494 206.346C173.914 205.218 174.322 204.15 174.718 203.142C175.126 202.134 175.528 201.174 175.924 200.262C176.32 199.338 176.734 198.426 177.166 197.526H178.768C179.2 198.426 179.614 199.338 180.01 200.262C180.406 201.174 180.802 202.134 181.198 203.142C181.606 204.15 182.02 205.218 182.44 206.346C182.86 207.462 183.31 208.68 183.79 210H181.882ZM180.244 205.374C179.86 204.33 179.476 203.322 179.092 202.35C178.72 201.366 178.33 200.424 177.922 199.524C177.502 200.424 177.1 201.366 176.716 202.35C176.344 203.322 175.972 204.33 175.6 205.374H180.244ZM188.832 200.442C188.976 200.442 189.138 200.454 189.318 200.478C189.51 200.49 189.696 200.514 189.876 200.55C190.056 200.574 190.218 200.604 190.362 200.64C190.518 200.664 190.632 200.688 190.704 200.712L190.416 202.17C190.284 202.122 190.062 202.068 189.75 202.008C189.45 201.936 189.06 201.9 188.58 201.9C188.268 201.9 187.956 201.936 187.644 202.008C187.344 202.068 187.146 202.11 187.05 202.134V210H185.376V201.036C185.772 200.892 186.264 200.76 186.852 200.64C187.44 200.508 188.1 200.442 188.832 200.442ZM191.797 205.338C191.797 204.51 191.917 203.79 192.157 203.178C192.397 202.554 192.715 202.038 193.111 201.63C193.507 201.222 193.963 200.916 194.479 200.712C194.995 200.508 195.523 200.406 196.063 200.406C197.323 200.406 198.289 200.802 198.961 201.594C199.633 202.374 199.969 203.568 199.969 205.176C199.969 205.248 199.969 205.344 199.969 205.464C199.969 205.572 199.963 205.674 199.951 205.77H193.543C193.615 206.742 193.897 207.48 194.389 207.984C194.881 208.488 195.649 208.74 196.693 208.74C197.281 208.74 197.773 208.692 198.169 208.596C198.577 208.488 198.883 208.386 199.087 208.29L199.321 209.694C199.117 209.802 198.757 209.916 198.241 210.036C197.737 210.156 197.161 210.216 196.513 210.216C195.697 210.216 194.989 210.096 194.389 209.856C193.801 209.604 193.315 209.262 192.931 208.83C192.547 208.398 192.259 207.888 192.067 207.3C191.887 206.7 191.797 206.046 191.797 205.338ZM198.223 204.42C198.235 203.664 198.043 203.046 197.647 202.566C197.263 202.074 196.729 201.828 196.045 201.828C195.661 201.828 195.319 201.906 195.019 202.062C194.731 202.206 194.485 202.398 194.281 202.638C194.077 202.878 193.915 203.154 193.795 203.466C193.687 203.778 193.615 204.096 193.579 204.42H198.223ZM205.442 211.746C205.574 211.806 205.742 211.86 205.946 211.908C206.162 211.968 206.372 211.998 206.576 211.998C207.236 211.998 207.752 211.848 208.124 211.548C208.496 211.26 208.832 210.786 209.132 210.126C208.376 208.686 207.668 207.162 207.008 205.554C206.36 203.934 205.82 202.296 205.388 200.64H207.188C207.32 201.18 207.476 201.762 207.656 202.386C207.848 203.01 208.058 203.652 208.286 204.312C208.514 204.972 208.76 205.632 209.024 206.292C209.288 206.952 209.564 207.588 209.852 208.2C210.308 206.94 210.704 205.692 211.04 204.456C211.376 203.22 211.694 201.948 211.994 200.64H213.722C213.29 202.404 212.81 204.102 212.282 205.734C211.754 207.354 211.184 208.872 210.572 210.288C210.332 210.828 210.08 211.29 209.816 211.674C209.564 212.07 209.282 212.394 208.97 212.646C208.658 212.898 208.304 213.084 207.908 213.204C207.524 213.324 207.086 213.384 206.594 213.384C206.462 213.384 206.324 213.372 206.18 213.348C206.036 213.336 205.892 213.312 205.748 213.276C205.616 213.252 205.49 213.222 205.37 213.186C205.262 213.15 205.184 213.12 205.136 213.096L205.442 211.746ZM223.749 205.32C223.749 206.064 223.641 206.736 223.425 207.336C223.209 207.936 222.903 208.452 222.507 208.884C222.123 209.316 221.661 209.652 221.121 209.892C220.581 210.12 219.993 210.234 219.357 210.234C218.721 210.234 218.133 210.12 217.593 209.892C217.053 209.652 216.585 209.316 216.189 208.884C215.805 208.452 215.505 207.936 215.289 207.336C215.073 206.736 214.965 206.064 214.965 205.32C214.965 204.588 215.073 203.922 215.289 203.322C215.505 202.71 215.805 202.188 216.189 201.756C216.585 201.324 217.053 200.994 217.593 200.766C218.133 200.526 218.721 200.406 219.357 200.406C219.993 200.406 220.581 200.526 221.121 200.766C221.661 200.994 222.123 201.324 222.507 201.756C222.903 202.188 223.209 202.71 223.425 203.322C223.641 203.922 223.749 204.588 223.749 205.32ZM222.003 205.32C222.003 204.264 221.763 203.43 221.283 202.818C220.815 202.194 220.173 201.882 219.357 201.882C218.541 201.882 217.893 202.194 217.413 202.818C216.945 203.43 216.711 204.264 216.711 205.32C216.711 206.376 216.945 207.216 217.413 207.84C217.893 208.452 218.541 208.758 219.357 208.758C220.173 208.758 220.815 208.452 221.283 207.84C221.763 207.216 222.003 206.376 222.003 205.32ZM233.556 209.73C233.172 209.826 232.662 209.928 232.026 210.036C231.402 210.144 230.676 210.198 229.848 210.198C229.128 210.198 228.522 210.096 228.03 209.892C227.538 209.676 227.142 209.376 226.842 208.992C226.542 208.608 226.326 208.158 226.194 207.642C226.062 207.114 225.996 206.532 225.996 205.896V200.64H227.67V205.536C227.67 206.676 227.85 207.492 228.21 207.984C228.57 208.476 229.176 208.722 230.028 208.722C230.208 208.722 230.394 208.716 230.586 208.704C230.778 208.692 230.958 208.68 231.126 208.668C231.294 208.644 231.444 208.626 231.576 208.614C231.72 208.59 231.822 208.566 231.882 208.542V200.64H233.556V209.73ZM244.062 200.442C244.206 200.442 244.368 200.454 244.548 200.478C244.74 200.49 244.926 200.514 245.106 200.55C245.286 200.574 245.448 200.604 245.592 200.64C245.748 200.664 245.862 200.688 245.934 200.712L245.646 202.17C245.514 202.122 245.292 202.068 244.98 202.008C244.68 201.936 244.29 201.9 243.81 201.9C243.498 201.9 243.186 201.936 242.874 202.008C242.574 202.068 242.376 202.11 242.28 202.134V210H240.606V201.036C241.002 200.892 241.494 200.76 242.082 200.64C242.67 200.508 243.33 200.442 244.062 200.442ZM247.027 205.338C247.027 204.51 247.147 203.79 247.387 203.178C247.627 202.554 247.945 202.038 248.341 201.63C248.737 201.222 249.193 200.916 249.709 200.712C250.225 200.508 250.753 200.406 251.293 200.406C252.553 200.406 253.519 200.802 254.191 201.594C254.863 202.374 255.199 203.568 255.199 205.176C255.199 205.248 255.199 205.344 255.199 205.464C255.199 205.572 255.193 205.674 255.181 205.77H248.773C248.845 206.742 249.127 207.48 249.619 207.984C250.111 208.488 250.879 208.74 251.923 208.74C252.511 208.74 253.003 208.692 253.399 208.596C253.807 208.488 254.113 208.386 254.317 208.29L254.551 209.694C254.347 209.802 253.987 209.916 253.471 210.036C252.967 210.156 252.391 210.216 251.743 210.216C250.927 210.216 250.219 210.096 249.619 209.856C249.031 209.604 248.545 209.262 248.161 208.83C247.777 208.398 247.489 207.888 247.297 207.3C247.117 206.7 247.027 206.046 247.027 205.338ZM253.453 204.42C253.465 203.664 253.273 203.046 252.877 202.566C252.493 202.074 251.959 201.828 251.275 201.828C250.891 201.828 250.549 201.906 250.249 202.062C249.961 202.206 249.715 202.398 249.511 202.638C249.307 202.878 249.145 203.154 249.025 203.466C248.917 203.778 248.845 204.096 248.809 204.42H253.453ZM260.772 208.794C261.168 208.794 261.516 208.788 261.816 208.776C262.128 208.752 262.386 208.716 262.59 208.668V205.878C262.47 205.818 262.272 205.77 261.996 205.734C261.732 205.686 261.408 205.662 261.024 205.662C260.772 205.662 260.502 205.68 260.214 205.716C259.938 205.752 259.68 205.83 259.44 205.95C259.212 206.058 259.02 206.214 258.864 206.418C258.708 206.61 258.63 206.868 258.63 207.192C258.63 207.792 258.822 208.212 259.206 208.452C259.59 208.68 260.112 208.794 260.772 208.794ZM260.628 200.406C261.3 200.406 261.864 200.496 262.32 200.676C262.788 200.844 263.16 201.09 263.436 201.414C263.724 201.726 263.928 202.104 264.048 202.548C264.168 202.98 264.228 203.46 264.228 203.988V209.838C264.084 209.862 263.88 209.898 263.616 209.946C263.364 209.982 263.076 210.018 262.752 210.054C262.428 210.09 262.074 210.12 261.69 210.144C261.318 210.18 260.946 210.198 260.574 210.198C260.046 210.198 259.56 210.144 259.116 210.036C258.672 209.928 258.288 209.76 257.964 209.532C257.64 209.292 257.388 208.98 257.208 208.596C257.028 208.212 256.938 207.75 256.938 207.21C256.938 206.694 257.04 206.25 257.244 205.878C257.46 205.506 257.748 205.206 258.108 204.978C258.468 204.75 258.888 204.582 259.368 204.474C259.848 204.366 260.352 204.312 260.88 204.312C261.048 204.312 261.222 204.324 261.402 204.348C261.582 204.36 261.75 204.384 261.906 204.42C262.074 204.444 262.218 204.468 262.338 204.492C262.458 204.516 262.542 204.534 262.59 204.546V204.078C262.59 203.802 262.56 203.532 262.5 203.268C262.44 202.992 262.332 202.752 262.176 202.548C262.02 202.332 261.804 202.164 261.528 202.044C261.264 201.912 260.916 201.846 260.484 201.846C259.932 201.846 259.446 201.888 259.026 201.972C258.618 202.044 258.312 202.122 258.108 202.206L257.91 200.82C258.126 200.724 258.486 200.634 258.99 200.55C259.494 200.454 260.04 200.406 260.628 200.406ZM273.056 202.62C272.852 202.452 272.558 202.29 272.174 202.134C271.79 201.978 271.37 201.9 270.914 201.9C270.434 201.9 270.02 201.99 269.672 202.17C269.336 202.338 269.06 202.578 268.844 202.89C268.628 203.19 268.472 203.55 268.376 203.97C268.28 204.39 268.232 204.84 268.232 205.32C268.232 206.412 268.502 207.258 269.042 207.858C269.582 208.446 270.302 208.74 271.202 208.74C271.658 208.74 272.036 208.722 272.336 208.686C272.648 208.638 272.888 208.59 273.056 208.542V202.62ZM273.056 196.32L274.73 196.032V209.73C274.346 209.838 273.854 209.946 273.254 210.054C272.654 210.162 271.964 210.216 271.184 210.216C270.464 210.216 269.816 210.102 269.24 209.874C268.664 209.646 268.172 209.322 267.764 208.902C267.356 208.482 267.038 207.972 266.81 207.372C266.594 206.76 266.486 206.076 266.486 205.32C266.486 204.6 266.576 203.94 266.756 203.34C266.948 202.74 267.224 202.224 267.584 201.792C267.944 201.36 268.382 201.024 268.898 200.784C269.426 200.544 270.026 200.424 270.698 200.424C271.238 200.424 271.712 200.496 272.12 200.64C272.54 200.784 272.852 200.922 273.056 201.054V196.32ZM276.51 211.746C276.642 211.806 276.81 211.86 277.014 211.908C277.23 211.968 277.44 211.998 277.644 211.998C278.304 211.998 278.82 211.848 279.192 211.548C279.564 211.26 279.9 210.786 280.2 210.126C279.444 208.686 278.736 207.162 278.076 205.554C277.428 203.934 276.888 202.296 276.456 200.64H278.256C278.388 201.18 278.544 201.762 278.724 202.386C278.916 203.01 279.126 203.652 279.354 204.312C279.582 204.972 279.828 205.632 280.092 206.292C280.356 206.952 280.632 207.588 280.92 208.2C281.376 206.94 281.772 205.692 282.108 204.456C282.444 203.22 282.762 201.948 283.062 200.64H284.79C284.358 202.404 283.878 204.102 283.35 205.734C282.822 207.354 282.252 208.872 281.64 210.288C281.4 210.828 281.148 211.29 280.884 211.674C280.632 212.07 280.35 212.394 280.038 212.646C279.726 212.898 279.372 213.084 278.976 213.204C278.592 213.324 278.154 213.384 277.662 213.384C277.53 213.384 277.392 213.372 277.248 213.348C277.104 213.336 276.96 213.312 276.816 213.276C276.684 213.252 276.558 213.222 276.438 213.186C276.33 213.15 276.252 213.12 276.204 213.096L276.51 211.746ZM292.287 200.64H295.833V202.044H292.287V206.364C292.287 206.832 292.323 207.222 292.395 207.534C292.467 207.834 292.575 208.074 292.719 208.254C292.863 208.422 293.043 208.542 293.259 208.614C293.475 208.686 293.727 208.722 294.015 208.722C294.519 208.722 294.921 208.668 295.221 208.56C295.533 208.44 295.749 208.356 295.869 208.308L296.193 209.694C296.025 209.778 295.731 209.88 295.311 210C294.891 210.132 294.411 210.198 293.871 210.198C293.235 210.198 292.707 210.12 292.287 209.964C291.879 209.796 291.549 209.55 291.297 209.226C291.045 208.902 290.865 208.506 290.757 208.038C290.661 207.558 290.613 207.006 290.613 206.382V198.03L292.287 197.742V200.64ZM305.979 205.32C305.979 206.064 305.871 206.736 305.655 207.336C305.439 207.936 305.133 208.452 304.737 208.884C304.353 209.316 303.891 209.652 303.351 209.892C302.811 210.12 302.223 210.234 301.587 210.234C300.951 210.234 300.363 210.12 299.823 209.892C299.283 209.652 298.815 209.316 298.419 208.884C298.035 208.452 297.735 207.936 297.519 207.336C297.303 206.736 297.195 206.064 297.195 205.32C297.195 204.588 297.303 203.922 297.519 203.322C297.735 202.71 298.035 202.188 298.419 201.756C298.815 201.324 299.283 200.994 299.823 200.766C300.363 200.526 300.951 200.406 301.587 200.406C302.223 200.406 302.811 200.526 303.351 200.766C303.891 200.994 304.353 201.324 304.737 201.756C305.133 202.188 305.439 202.71 305.655 203.322C305.871 203.922 305.979 204.588 305.979 205.32ZM304.233 205.32C304.233 204.264 303.993 203.43 303.513 202.818C303.045 202.194 302.403 201.882 301.587 201.882C300.771 201.882 300.123 202.194 299.643 202.818C299.175 203.43 298.941 204.264 298.941 205.32C298.941 206.376 299.175 207.216 299.643 207.84C300.123 208.452 300.771 208.758 301.587 208.758C302.403 208.758 303.045 208.452 303.513 207.84C303.993 207.216 304.233 206.376 304.233 205.32ZM314.175 201.054C314.379 200.922 314.685 200.784 315.093 200.64C315.513 200.496 315.993 200.424 316.533 200.424C317.205 200.424 317.799 200.544 318.315 200.784C318.843 201.024 319.287 201.36 319.647 201.792C320.007 202.224 320.277 202.74 320.457 203.34C320.649 203.94 320.745 204.6 320.745 205.32C320.745 206.076 320.631 206.76 320.403 207.372C320.187 207.972 319.875 208.482 319.467 208.902C319.059 209.322 318.567 209.646 317.991 209.874C317.415 210.102 316.767 210.216 316.047 210.216C315.267 210.216 314.577 210.162 313.977 210.054C313.377 209.946 312.885 209.838 312.501 209.73V196.32L314.175 196.032V201.054ZM314.175 208.542C314.343 208.59 314.577 208.638 314.877 208.686C315.189 208.722 315.573 208.74 316.029 208.74C316.929 208.74 317.649 208.446 318.189 207.858C318.729 207.258 318.999 206.412 318.999 205.32C318.999 204.84 318.951 204.39 318.855 203.97C318.759 203.55 318.603 203.19 318.387 202.89C318.171 202.578 317.889 202.338 317.541 202.17C317.205 201.99 316.797 201.9 316.317 201.9C315.861 201.9 315.441 201.978 315.057 202.134C314.673 202.29 314.379 202.452 314.175 202.62V208.542ZM322.578 205.338C322.578 204.51 322.698 203.79 322.938 203.178C323.178 202.554 323.496 202.038 323.892 201.63C324.288 201.222 324.744 200.916 325.26 200.712C325.776 200.508 326.304 200.406 326.844 200.406C328.104 200.406 329.07 200.802 329.742 201.594C330.414 202.374 330.75 203.568 330.75 205.176C330.75 205.248 330.75 205.344 330.75 205.464C330.75 205.572 330.744 205.674 330.732 205.77H324.324C324.396 206.742 324.678 207.48 325.17 207.984C325.662 208.488 326.43 208.74 327.474 208.74C328.062 208.74 328.554 208.692 328.95 208.596C329.358 208.488 329.664 208.386 329.868 208.29L330.102 209.694C329.898 209.802 329.538 209.916 329.022 210.036C328.518 210.156 327.942 210.216 327.294 210.216C326.478 210.216 325.77 210.096 325.17 209.856C324.582 209.604 324.096 209.262 323.712 208.83C323.328 208.398 323.04 207.888 322.848 207.3C322.668 206.7 322.578 206.046 322.578 205.338ZM329.004 204.42C329.016 203.664 328.824 203.046 328.428 202.566C328.044 202.074 327.51 201.828 326.826 201.828C326.442 201.828 326.1 201.906 325.8 202.062C325.512 202.206 325.266 202.398 325.062 202.638C324.858 202.878 324.696 203.154 324.576 203.466C324.468 203.778 324.396 204.096 324.36 204.42H329.004ZM337.223 210.216C336.467 210.216 335.801 210.096 335.225 209.856C334.661 209.616 334.181 209.28 333.785 208.848C333.401 208.416 333.113 207.906 332.921 207.318C332.729 206.718 332.633 206.058 332.633 205.338C332.633 204.618 332.735 203.958 332.939 203.358C333.155 202.758 333.455 202.242 333.839 201.81C334.223 201.366 334.691 201.024 335.243 200.784C335.807 200.532 336.431 200.406 337.115 200.406C337.535 200.406 337.955 200.442 338.375 200.514C338.795 200.586 339.197 200.7 339.581 200.856L339.203 202.278C338.951 202.158 338.657 202.062 338.321 201.99C337.997 201.918 337.649 201.882 337.277 201.882C336.341 201.882 335.621 202.176 335.117 202.764C334.625 203.352 334.379 204.21 334.379 205.338C334.379 205.842 334.433 206.304 334.541 206.724C334.661 207.144 334.841 207.504 335.081 207.804C335.333 208.104 335.651 208.338 336.035 208.506C336.419 208.662 336.887 208.74 337.439 208.74C337.883 208.74 338.285 208.698 338.645 208.614C339.005 208.53 339.287 208.44 339.491 208.344L339.725 209.748C339.629 209.808 339.491 209.868 339.311 209.928C339.131 209.976 338.927 210.018 338.699 210.054C338.471 210.102 338.225 210.138 337.961 210.162C337.709 210.198 337.463 210.216 337.223 210.216ZM349.556 205.32C349.556 206.064 349.448 206.736 349.232 207.336C349.016 207.936 348.71 208.452 348.314 208.884C347.93 209.316 347.468 209.652 346.928 209.892C346.388 210.12 345.8 210.234 345.164 210.234C344.528 210.234 343.94 210.12 343.4 209.892C342.86 209.652 342.392 209.316 341.996 208.884C341.612 208.452 341.312 207.936 341.096 207.336C340.88 206.736 340.772 206.064 340.772 205.32C340.772 204.588 340.88 203.922 341.096 203.322C341.312 202.71 341.612 202.188 341.996 201.756C342.392 201.324 342.86 200.994 343.4 200.766C343.94 200.526 344.528 200.406 345.164 200.406C345.8 200.406 346.388 200.526 346.928 200.766C347.468 200.994 347.93 201.324 348.314 201.756C348.71 202.188 349.016 202.71 349.232 203.322C349.448 203.922 349.556 204.588 349.556 205.32ZM347.81 205.32C347.81 204.264 347.57 203.43 347.09 202.818C346.622 202.194 345.98 201.882 345.164 201.882C344.348 201.882 343.7 202.194 343.22 202.818C342.752 203.43 342.518 204.264 342.518 205.32C342.518 206.376 342.752 207.216 343.22 207.84C343.7 208.452 344.348 208.758 345.164 208.758C345.98 208.758 346.622 208.452 347.09 207.84C347.57 207.216 347.81 206.376 347.81 205.32ZM351.911 200.91C352.295 200.814 352.799 200.712 353.423 200.604C354.059 200.496 354.791 200.442 355.619 200.442C356.219 200.442 356.723 200.526 357.131 200.694C357.539 200.85 357.881 201.084 358.157 201.396C358.241 201.336 358.373 201.252 358.553 201.144C358.733 201.036 358.955 200.934 359.219 200.838C359.483 200.73 359.777 200.64 360.101 200.568C360.425 200.484 360.773 200.442 361.145 200.442C361.865 200.442 362.453 200.55 362.909 200.766C363.365 200.97 363.719 201.264 363.971 201.648C364.235 202.032 364.409 202.488 364.493 203.016C364.589 203.544 364.637 204.12 364.637 204.744V210H362.963V205.104C362.963 204.552 362.933 204.078 362.873 203.682C362.825 203.286 362.723 202.956 362.567 202.692C362.423 202.428 362.219 202.236 361.955 202.116C361.703 201.984 361.373 201.918 360.965 201.918C360.401 201.918 359.933 201.996 359.561 202.152C359.201 202.296 358.955 202.428 358.823 202.548C358.919 202.86 358.991 203.202 359.039 203.574C359.087 203.946 359.111 204.336 359.111 204.744V210H357.437V205.104C357.437 204.552 357.407 204.078 357.347 203.682C357.287 203.286 357.179 202.956 357.023 202.692C356.879 202.428 356.675 202.236 356.411 202.116C356.159 201.984 355.835 201.918 355.439 201.918C355.271 201.918 355.091 201.924 354.899 201.936C354.707 201.948 354.521 201.966 354.341 201.99C354.173 202.002 354.017 202.02 353.873 202.044C353.729 202.068 353.633 202.086 353.585 202.098V210H351.911V200.91ZM366.893 205.338C366.893 204.51 367.013 203.79 367.253 203.178C367.493 202.554 367.811 202.038 368.207 201.63C368.603 201.222 369.059 200.916 369.575 200.712C370.091 200.508 370.619 200.406 371.159 200.406C372.419 200.406 373.385 200.802 374.057 201.594C374.729 202.374 375.065 203.568 375.065 205.176C375.065 205.248 375.065 205.344 375.065 205.464C375.065 205.572 375.059 205.674 375.047 205.77H368.639C368.711 206.742 368.993 207.48 369.485 207.984C369.977 208.488 370.745 208.74 371.789 208.74C372.377 208.74 372.869 208.692 373.265 208.596C373.673 208.488 373.979 208.386 374.183 208.29L374.417 209.694C374.213 209.802 373.853 209.916 373.337 210.036C372.833 210.156 372.257 210.216 371.609 210.216C370.793 210.216 370.085 210.096 369.485 209.856C368.897 209.604 368.411 209.262 368.027 208.83C367.643 208.398 367.355 207.888 367.163 207.3C366.983 206.7 366.893 206.046 366.893 205.338ZM373.319 204.42C373.331 203.664 373.139 203.046 372.743 202.566C372.359 202.074 371.825 201.828 371.141 201.828C370.757 201.828 370.415 201.906 370.115 202.062C369.827 202.206 369.581 202.398 369.377 202.638C369.173 202.878 369.011 203.154 368.891 203.466C368.783 203.778 368.711 204.096 368.675 204.42H373.319ZM388.133 205.338C388.133 204.246 387.863 203.406 387.323 202.818C386.783 202.23 386.063 201.936 385.163 201.936C384.659 201.936 384.263 201.954 383.975 201.99C383.699 202.026 383.477 202.068 383.309 202.116V208.02C383.513 208.188 383.807 208.35 384.191 208.506C384.575 208.662 384.995 208.74 385.451 208.74C385.931 208.74 386.339 208.656 386.675 208.488C387.023 208.308 387.305 208.068 387.521 207.768C387.737 207.456 387.893 207.096 387.989 206.688C388.085 206.268 388.133 205.818 388.133 205.338ZM389.879 205.338C389.879 206.046 389.783 206.7 389.591 207.3C389.411 207.9 389.141 208.416 388.781 208.848C388.421 209.28 387.977 209.616 387.449 209.856C386.933 210.096 386.339 210.216 385.667 210.216C385.127 210.216 384.647 210.144 384.227 210C383.819 209.856 383.513 209.718 383.309 209.586V213.33H381.635V200.928C382.031 200.832 382.523 200.73 383.111 200.622C383.711 200.502 384.401 200.442 385.181 200.442C385.901 200.442 386.549 200.556 387.125 200.784C387.701 201.012 388.193 201.336 388.601 201.756C389.009 202.176 389.321 202.692 389.537 203.304C389.765 203.904 389.879 204.582 389.879 205.338ZM395.403 208.794C395.799 208.794 396.147 208.788 396.447 208.776C396.759 208.752 397.017 208.716 397.221 208.668V205.878C397.101 205.818 396.903 205.77 396.627 205.734C396.363 205.686 396.039 205.662 395.655 205.662C395.403 205.662 395.133 205.68 394.845 205.716C394.569 205.752 394.311 205.83 394.071 205.95C393.843 206.058 393.651 206.214 393.495 206.418C393.339 206.61 393.261 206.868 393.261 207.192C393.261 207.792 393.453 208.212 393.837 208.452C394.221 208.68 394.743 208.794 395.403 208.794ZM395.259 200.406C395.931 200.406 396.495 200.496 396.951 200.676C397.419 200.844 397.791 201.09 398.067 201.414C398.355 201.726 398.559 202.104 398.679 202.548C398.799 202.98 398.859 203.46 398.859 203.988V209.838C398.715 209.862 398.511 209.898 398.247 209.946C397.995 209.982 397.707 210.018 397.383 210.054C397.059 210.09 396.705 210.12 396.321 210.144C395.949 210.18 395.577 210.198 395.205 210.198C394.677 210.198 394.191 210.144 393.747 210.036C393.303 209.928 392.919 209.76 392.595 209.532C392.271 209.292 392.019 208.98 391.839 208.596C391.659 208.212 391.569 207.75 391.569 207.21C391.569 206.694 391.671 206.25 391.875 205.878C392.091 205.506 392.379 205.206 392.739 204.978C393.099 204.75 393.519 204.582 393.999 204.474C394.479 204.366 394.983 204.312 395.511 204.312C395.679 204.312 395.853 204.324 396.033 204.348C396.213 204.36 396.381 204.384 396.537 204.42C396.705 204.444 396.849 204.468 396.969 204.492C397.089 204.516 397.173 204.534 397.221 204.546V204.078C397.221 203.802 397.191 203.532 397.131 203.268C397.071 202.992 396.963 202.752 396.807 202.548C396.651 202.332 396.435 202.164 396.159 202.044C395.895 201.912 395.547 201.846 395.115 201.846C394.563 201.846 394.077 201.888 393.657 201.972C393.249 202.044 392.943 202.122 392.739 202.206L392.541 200.82C392.757 200.724 393.117 200.634 393.621 200.55C394.125 200.454 394.671 200.406 395.259 200.406ZM405.095 200.442C405.239 200.442 405.401 200.454 405.581 200.478C405.773 200.49 405.959 200.514 406.139 200.55C406.319 200.574 406.481 200.604 406.625 200.64C406.781 200.664 406.895 200.688 406.967 200.712L406.679 202.17C406.547 202.122 406.325 202.068 406.013 202.008C405.713 201.936 405.323 201.9 404.843 201.9C404.531 201.9 404.219 201.936 403.907 202.008C403.607 202.068 403.409 202.11 403.313 202.134V210H401.639V201.036C402.035 200.892 402.527 200.76 403.115 200.64C403.703 200.508 404.363 200.442 405.095 200.442ZM410.149 200.64H413.695V202.044H410.149V206.364C410.149 206.832 410.185 207.222 410.257 207.534C410.329 207.834 410.437 208.074 410.581 208.254C410.725 208.422 410.905 208.542 411.121 208.614C411.337 208.686 411.589 208.722 411.877 208.722C412.381 208.722 412.783 208.668 413.083 208.56C413.395 208.44 413.611 208.356 413.731 208.308L414.055 209.694C413.887 209.778 413.593 209.88 413.173 210C412.753 210.132 412.273 210.198 411.733 210.198C411.097 210.198 410.569 210.12 410.149 209.964C409.741 209.796 409.411 209.55 409.159 209.226C408.907 208.902 408.727 208.506 408.619 208.038C408.523 207.558 408.475 207.006 408.475 206.382V198.03L410.149 197.742V200.64ZM428.253 205.32C428.253 206.064 428.145 206.736 427.929 207.336C427.713 207.936 427.407 208.452 427.011 208.884C426.627 209.316 426.165 209.652 425.625 209.892C425.085 210.12 424.497 210.234 423.861 210.234C423.225 210.234 422.637 210.12 422.097 209.892C421.557 209.652 421.089 209.316 420.693 208.884C420.309 208.452 420.009 207.936 419.793 207.336C419.577 206.736 419.469 206.064 419.469 205.32C419.469 204.588 419.577 203.922 419.793 203.322C420.009 202.71 420.309 202.188 420.693 201.756C421.089 201.324 421.557 200.994 422.097 200.766C422.637 200.526 423.225 200.406 423.861 200.406C424.497 200.406 425.085 200.526 425.625 200.766C426.165 200.994 426.627 201.324 427.011 201.756C427.407 202.188 427.713 202.71 427.929 203.322C428.145 203.922 428.253 204.588 428.253 205.32ZM426.507 205.32C426.507 204.264 426.267 203.43 425.787 202.818C425.319 202.194 424.677 201.882 423.861 201.882C423.045 201.882 422.397 202.194 421.917 202.818C421.449 203.43 421.215 204.264 421.215 205.32C421.215 206.376 421.449 207.216 421.917 207.84C422.397 208.452 423.045 208.758 423.861 208.758C424.677 208.758 425.319 208.452 425.787 207.84C426.267 207.216 426.507 206.376 426.507 205.32ZM434.262 196.032C434.754 196.032 435.174 196.068 435.522 196.14C435.882 196.212 436.134 196.278 436.278 196.338L435.972 197.778C435.828 197.706 435.624 197.64 435.36 197.58C435.096 197.508 434.772 197.472 434.388 197.472C433.608 197.472 433.062 197.688 432.75 198.12C432.438 198.54 432.282 199.11 432.282 199.83V200.64H435.882V202.044H432.282V210H430.608V199.794C430.608 198.594 430.902 197.67 431.49 197.022C432.078 196.362 433.002 196.032 434.262 196.032ZM181.702 226.32C181.702 227.064 181.594 227.736 181.378 228.336C181.162 228.936 180.856 229.452 180.46 229.884C180.076 230.316 179.614 230.652 179.074 230.892C178.534 231.12 177.946 231.234 177.31 231.234C176.674 231.234 176.086 231.12 175.546 230.892C175.006 230.652 174.538 230.316 174.142 229.884C173.758 229.452 173.458 228.936 173.242 228.336C173.026 227.736 172.918 227.064 172.918 226.32C172.918 225.588 173.026 224.922 173.242 224.322C173.458 223.71 173.758 223.188 174.142 222.756C174.538 222.324 175.006 221.994 175.546 221.766C176.086 221.526 176.674 221.406 177.31 221.406C177.946 221.406 178.534 221.526 179.074 221.766C179.614 221.994 180.076 222.324 180.46 222.756C180.856 223.188 181.162 223.71 181.378 224.322C181.594 224.922 181.702 225.588 181.702 226.32ZM179.956 226.32C179.956 225.264 179.716 224.43 179.236 223.818C178.768 223.194 178.126 222.882 177.31 222.882C176.494 222.882 175.846 223.194 175.366 223.818C174.898 224.43 174.664 225.264 174.664 226.32C174.664 227.376 174.898 228.216 175.366 228.84C175.846 229.452 176.494 229.758 177.31 229.758C178.126 229.758 178.768 229.452 179.236 228.84C179.716 228.216 179.956 227.376 179.956 226.32ZM191.509 230.73C191.125 230.826 190.615 230.928 189.979 231.036C189.355 231.144 188.629 231.198 187.801 231.198C187.081 231.198 186.475 231.096 185.983 230.892C185.491 230.676 185.095 230.376 184.795 229.992C184.495 229.608 184.279 229.158 184.147 228.642C184.015 228.114 183.949 227.532 183.949 226.896V221.64H185.623V226.536C185.623 227.676 185.803 228.492 186.163 228.984C186.523 229.476 187.129 229.722 187.981 229.722C188.161 229.722 188.347 229.716 188.539 229.704C188.731 229.692 188.911 229.68 189.079 229.668C189.247 229.644 189.397 229.626 189.529 229.614C189.673 229.59 189.775 229.566 189.835 229.542V221.64H191.509V230.73ZM197.849 221.442C197.993 221.442 198.155 221.454 198.335 221.478C198.527 221.49 198.713 221.514 198.893 221.55C199.073 221.574 199.235 221.604 199.379 221.64C199.535 221.664 199.649 221.688 199.721 221.712L199.433 223.17C199.301 223.122 199.079 223.068 198.767 223.008C198.467 222.936 198.077 222.9 197.597 222.9C197.285 222.9 196.973 222.936 196.661 223.008C196.361 223.068 196.163 223.11 196.067 223.134V231H194.393V222.036C194.789 221.892 195.281 221.76 195.869 221.64C196.457 221.508 197.117 221.442 197.849 221.442ZM204.981 226.338C204.981 225.51 205.101 224.79 205.341 224.178C205.581 223.554 205.899 223.038 206.295 222.63C206.691 222.222 207.147 221.916 207.663 221.712C208.179 221.508 208.707 221.406 209.247 221.406C210.507 221.406 211.473 221.802 212.145 222.594C212.817 223.374 213.152 224.568 213.152 226.176C213.152 226.248 213.152 226.344 213.152 226.464C213.152 226.572 213.146 226.674 213.135 226.77H206.727C206.799 227.742 207.081 228.48 207.573 228.984C208.065 229.488 208.833 229.74 209.877 229.74C210.465 229.74 210.957 229.692 211.353 229.596C211.761 229.488 212.067 229.386 212.271 229.29L212.505 230.694C212.301 230.802 211.941 230.916 211.425 231.036C210.921 231.156 210.345 231.216 209.697 231.216C208.881 231.216 208.173 231.096 207.573 230.856C206.985 230.604 206.499 230.262 206.115 229.83C205.731 229.398 205.443 228.888 205.25 228.3C205.071 227.7 204.981 227.046 204.981 226.338ZM211.407 225.42C211.419 224.664 211.227 224.046 210.831 223.566C210.447 223.074 209.913 222.828 209.229 222.828C208.845 222.828 208.503 222.906 208.203 223.062C207.915 223.206 207.669 223.398 207.465 223.638C207.261 223.878 207.099 224.154 206.979 224.466C206.871 224.778 206.799 225.096 206.763 225.42H211.407ZM221.155 231C221.023 230.736 220.861 230.442 220.669 230.118C220.477 229.794 220.267 229.464 220.039 229.128C219.811 228.78 219.577 228.438 219.337 228.102C219.097 227.766 218.863 227.448 218.635 227.148C218.407 227.448 218.173 227.772 217.933 228.12C217.693 228.456 217.459 228.798 217.231 229.146C217.015 229.482 216.811 229.812 216.619 230.136C216.427 230.46 216.265 230.748 216.133 231H214.405C214.825 230.184 215.323 229.356 215.899 228.516C216.487 227.664 217.069 226.854 217.645 226.086L214.549 221.64H216.439L218.671 224.916L220.921 221.64H222.703L219.679 225.978C220.255 226.758 220.843 227.586 221.443 228.462C222.055 229.326 222.571 230.172 222.991 231H221.155ZM228.432 231.216C227.676 231.216 227.01 231.096 226.434 230.856C225.87 230.616 225.39 230.28 224.994 229.848C224.61 229.416 224.322 228.906 224.13 228.318C223.938 227.718 223.842 227.058 223.842 226.338C223.842 225.618 223.944 224.958 224.148 224.358C224.364 223.758 224.664 223.242 225.048 222.81C225.432 222.366 225.9 222.024 226.452 221.784C227.016 221.532 227.64 221.406 228.324 221.406C228.744 221.406 229.164 221.442 229.584 221.514C230.004 221.586 230.406 221.7 230.79 221.856L230.412 223.278C230.16 223.158 229.866 223.062 229.53 222.99C229.206 222.918 228.858 222.882 228.486 222.882C227.55 222.882 226.83 223.176 226.326 223.764C225.834 224.352 225.588 225.21 225.588 226.338C225.588 226.842 225.642 227.304 225.75 227.724C225.87 228.144 226.05 228.504 226.29 228.804C226.542 229.104 226.86 229.338 227.244 229.506C227.628 229.662 228.096 229.74 228.648 229.74C229.092 229.74 229.494 229.698 229.854 229.614C230.214 229.53 230.496 229.44 230.7 229.344L230.934 230.748C230.838 230.808 230.7 230.868 230.52 230.928C230.34 230.976 230.136 231.018 229.908 231.054C229.68 231.102 229.434 231.138 229.17 231.162C228.918 231.198 228.672 231.216 228.432 231.216ZM234.405 231H232.731V221.64H234.405V231ZM233.559 219.948C233.259 219.948 233.001 219.852 232.785 219.66C232.581 219.456 232.479 219.186 232.479 218.85C232.479 218.514 232.581 218.25 232.785 218.058C233.001 217.854 233.259 217.752 233.559 217.752C233.859 217.752 234.111 217.854 234.315 218.058C234.531 218.25 234.639 218.514 234.639 218.85C234.639 219.186 234.531 219.456 234.315 219.66C234.111 219.852 233.859 219.948 233.559 219.948ZM238.85 221.64H242.396V223.044H238.85V227.364C238.85 227.832 238.886 228.222 238.958 228.534C239.03 228.834 239.138 229.074 239.282 229.254C239.426 229.422 239.606 229.542 239.822 229.614C240.038 229.686 240.29 229.722 240.578 229.722C241.082 229.722 241.484 229.668 241.784 229.56C242.096 229.44 242.312 229.356 242.432 229.308L242.756 230.694C242.588 230.778 242.294 230.88 241.874 231C241.454 231.132 240.974 231.198 240.434 231.198C239.798 231.198 239.27 231.12 238.85 230.964C238.442 230.796 238.112 230.55 237.86 230.226C237.608 229.902 237.428 229.506 237.32 229.038C237.224 228.558 237.176 228.006 237.176 227.382V219.03L238.85 218.742V221.64ZM246.2 231H244.526V221.64H246.2V231ZM245.354 219.948C245.054 219.948 244.796 219.852 244.58 219.66C244.376 219.456 244.274 219.186 244.274 218.85C244.274 218.514 244.376 218.25 244.58 218.058C244.796 217.854 245.054 217.752 245.354 217.752C245.654 217.752 245.906 217.854 246.11 218.058C246.326 218.25 246.434 218.514 246.434 218.85C246.434 219.186 246.326 219.456 246.11 219.66C245.906 219.852 245.654 219.948 245.354 219.948ZM249.079 221.91C249.463 221.814 249.973 221.712 250.609 221.604C251.245 221.496 251.977 221.442 252.805 221.442C253.549 221.442 254.167 221.55 254.659 221.766C255.151 221.97 255.541 222.264 255.829 222.648C256.129 223.02 256.339 223.47 256.459 223.998C256.579 224.526 256.639 225.108 256.639 225.744V231H254.965V226.104C254.965 225.528 254.923 225.036 254.839 224.628C254.767 224.22 254.641 223.89 254.461 223.638C254.281 223.386 254.041 223.206 253.741 223.098C253.441 222.978 253.069 222.918 252.625 222.918C252.445 222.918 252.259 222.924 252.067 222.936C251.875 222.948 251.689 222.966 251.509 222.99C251.341 223.002 251.185 223.02 251.041 223.044C250.909 223.068 250.813 223.086 250.753 223.098V231H249.079V221.91ZM265.283 230.064C265.139 230.16 264.857 230.286 264.437 230.442C264.029 230.586 263.549 230.658 262.997 230.658C262.433 230.658 261.899 230.568 261.395 230.388C260.903 230.208 260.471 229.932 260.099 229.56C259.727 229.176 259.433 228.702 259.217 228.138C259.001 227.574 258.893 226.902 258.893 226.122C258.893 225.438 258.995 224.814 259.199 224.25C259.403 223.674 259.697 223.182 260.081 222.774C260.477 222.354 260.957 222.03 261.521 221.802C262.085 221.562 262.721 221.442 263.429 221.442C264.209 221.442 264.887 221.502 265.463 221.622C266.051 221.73 266.543 221.832 266.939 221.928V230.28C266.939 231.72 266.567 232.764 265.823 233.412C265.079 234.06 263.951 234.384 262.439 234.384C261.851 234.384 261.293 234.336 260.765 234.24C260.249 234.144 259.799 234.03 259.415 233.898L259.721 232.44C260.057 232.572 260.465 232.686 260.945 232.782C261.437 232.89 261.947 232.944 262.475 232.944C263.471 232.944 264.185 232.746 264.617 232.35C265.061 231.954 265.283 231.324 265.283 230.46V230.064ZM265.265 223.116C265.097 223.068 264.869 223.026 264.581 222.99C264.305 222.942 263.927 222.918 263.447 222.918C262.547 222.918 261.851 223.212 261.359 223.8C260.879 224.388 260.639 225.168 260.639 226.14C260.639 226.68 260.705 227.142 260.837 227.526C260.981 227.91 261.167 228.228 261.395 228.48C261.635 228.732 261.905 228.918 262.205 229.038C262.517 229.158 262.835 229.218 263.159 229.218C263.603 229.218 264.011 229.158 264.383 229.038C264.755 228.906 265.049 228.756 265.265 228.588V223.116ZM272.457 234.366C272.313 234.366 272.127 234.348 271.899 234.312C271.671 234.276 271.479 234.228 271.323 234.168L271.539 232.8C271.659 232.836 271.797 232.866 271.953 232.89C272.109 232.914 272.253 232.926 272.385 232.926C272.961 232.926 273.369 232.746 273.609 232.386C273.861 232.038 273.987 231.522 273.987 230.838V221.64H275.661V230.82C275.661 232.02 275.385 232.908 274.833 233.484C274.293 234.072 273.501 234.366 272.457 234.366ZM274.815 219.948C274.515 219.948 274.257 219.852 274.041 219.66C273.837 219.456 273.735 219.186 273.735 218.85C273.735 218.514 273.837 218.25 274.041 218.058C274.257 217.854 274.515 217.752 274.815 217.752C275.115 217.752 275.367 217.854 275.571 218.058C275.787 218.25 275.895 218.514 275.895 218.85C275.895 219.186 275.787 219.456 275.571 219.66C275.367 219.852 275.115 219.948 274.815 219.948ZM286.802 226.32C286.802 227.064 286.694 227.736 286.478 228.336C286.262 228.936 285.956 229.452 285.56 229.884C285.176 230.316 284.714 230.652 284.174 230.892C283.634 231.12 283.046 231.234 282.41 231.234C281.774 231.234 281.186 231.12 280.646 230.892C280.106 230.652 279.638 230.316 279.242 229.884C278.858 229.452 278.558 228.936 278.342 228.336C278.126 227.736 278.018 227.064 278.018 226.32C278.018 225.588 278.126 224.922 278.342 224.322C278.558 223.71 278.858 223.188 279.242 222.756C279.638 222.324 280.106 221.994 280.646 221.766C281.186 221.526 281.774 221.406 282.41 221.406C283.046 221.406 283.634 221.526 284.174 221.766C284.714 221.994 285.176 222.324 285.56 222.756C285.956 223.188 286.262 223.71 286.478 224.322C286.694 224.922 286.802 225.588 286.802 226.32ZM285.056 226.32C285.056 225.264 284.816 224.43 284.336 223.818C283.868 223.194 283.226 222.882 282.41 222.882C281.594 222.882 280.946 223.194 280.466 223.818C279.998 224.43 279.764 225.264 279.764 226.32C279.764 227.376 279.998 228.216 280.466 228.84C280.946 229.452 281.594 229.758 282.41 229.758C283.226 229.758 283.868 229.452 284.336 228.84C284.816 228.216 285.056 227.376 285.056 226.32ZM296.609 230.73C296.225 230.826 295.715 230.928 295.079 231.036C294.455 231.144 293.729 231.198 292.901 231.198C292.181 231.198 291.575 231.096 291.083 230.892C290.591 230.676 290.195 230.376 289.895 229.992C289.595 229.608 289.379 229.158 289.247 228.642C289.115 228.114 289.049 227.532 289.049 226.896V221.64H290.723V226.536C290.723 227.676 290.903 228.492 291.263 228.984C291.623 229.476 292.229 229.722 293.081 229.722C293.261 229.722 293.447 229.716 293.639 229.704C293.831 229.692 294.011 229.68 294.179 229.668C294.347 229.644 294.497 229.626 294.629 229.614C294.773 229.59 294.875 229.566 294.935 229.542V221.64H296.609V230.73ZM302.949 221.442C303.093 221.442 303.255 221.454 303.435 221.478C303.627 221.49 303.813 221.514 303.993 221.55C304.173 221.574 304.335 221.604 304.479 221.64C304.635 221.664 304.749 221.688 304.821 221.712L304.533 223.17C304.401 223.122 304.179 223.068 303.867 223.008C303.567 222.936 303.177 222.9 302.697 222.9C302.385 222.9 302.073 222.936 301.761 223.008C301.461 223.068 301.263 223.11 301.167 223.134V231H299.493V222.036C299.889 221.892 300.381 221.76 300.969 221.64C301.557 221.508 302.217 221.442 302.949 221.442ZM306.436 221.91C306.82 221.814 307.33 221.712 307.966 221.604C308.602 221.496 309.334 221.442 310.162 221.442C310.906 221.442 311.524 221.55 312.016 221.766C312.508 221.97 312.898 222.264 313.186 222.648C313.486 223.02 313.696 223.47 313.816 223.998C313.936 224.526 313.996 225.108 313.996 225.744V231H312.322V226.104C312.322 225.528 312.28 225.036 312.196 224.628C312.124 224.22 311.998 223.89 311.818 223.638C311.638 223.386 311.398 223.206 311.098 223.098C310.798 222.978 310.426 222.918 309.982 222.918C309.802 222.918 309.616 222.924 309.424 222.936C309.232 222.948 309.046 222.966 308.866 222.99C308.698 223.002 308.542 223.02 308.398 223.044C308.266 223.068 308.17 223.086 308.11 223.098V231H306.436V221.91ZM316.25 226.338C316.25 225.51 316.37 224.79 316.61 224.178C316.85 223.554 317.168 223.038 317.564 222.63C317.96 222.222 318.416 221.916 318.932 221.712C319.448 221.508 319.976 221.406 320.516 221.406C321.776 221.406 322.742 221.802 323.414 222.594C324.086 223.374 324.422 224.568 324.422 226.176C324.422 226.248 324.422 226.344 324.422 226.464C324.422 226.572 324.416 226.674 324.404 226.77H317.996C318.068 227.742 318.35 228.48 318.842 228.984C319.334 229.488 320.102 229.74 321.146 229.74C321.734 229.74 322.226 229.692 322.622 229.596C323.03 229.488 323.336 229.386 323.54 229.29L323.774 230.694C323.57 230.802 323.21 230.916 322.694 231.036C322.19 231.156 321.614 231.216 320.966 231.216C320.15 231.216 319.442 231.096 318.842 230.856C318.254 230.604 317.768 230.262 317.384 229.83C317 229.398 316.712 228.888 316.52 228.3C316.34 227.7 316.25 227.046 316.25 226.338ZM322.676 225.42C322.688 224.664 322.496 224.046 322.1 223.566C321.716 223.074 321.182 222.828 320.498 222.828C320.114 222.828 319.772 222.906 319.472 223.062C319.184 223.206 318.938 223.398 318.734 223.638C318.53 223.878 318.368 224.154 318.248 224.466C318.14 224.778 318.068 225.096 318.032 225.42H322.676ZM325.729 232.746C325.861 232.806 326.029 232.86 326.233 232.908C326.449 232.968 326.659 232.998 326.863 232.998C327.523 232.998 328.039 232.848 328.411 232.548C328.783 232.26 329.119 231.786 329.419 231.126C328.663 229.686 327.955 228.162 327.295 226.554C326.647 224.934 326.107 223.296 325.675 221.64H327.475C327.607 222.18 327.763 222.762 327.943 223.386C328.135 224.01 328.345 224.652 328.573 225.312C328.801 225.972 329.047 226.632 329.311 227.292C329.575 227.952 329.851 228.588 330.139 229.2C330.595 227.94 330.991 226.692 331.327 225.456C331.663 224.22 331.981 222.948 332.281 221.64H334.009C333.577 223.404 333.097 225.102 332.569 226.734C332.041 228.354 331.471 229.872 330.859 231.288C330.619 231.828 330.367 232.29 330.103 232.674C329.851 233.07 329.569 233.394 329.257 233.646C328.945 233.898 328.591 234.084 328.195 234.204C327.811 234.324 327.373 234.384 326.881 234.384C326.749 234.384 326.611 234.372 326.467 234.348C326.323 234.336 326.179 234.312 326.035 234.276C325.903 234.252 325.777 234.222 325.657 234.186C325.549 234.15 325.471 234.12 325.423 234.096L325.729 232.746Z" fill="black"/>
</svg>
