<svg width="768" height="544" viewBox="0 0 768 544" fill="none" xmlns="http://www.w3.org/2000/svg">
<g opacity="0.3">
<path d="M108.623 167.213V167.225L99.1206 175.166L33.775 189.683C31.7639 190.496 29.9328 191.697 28.386 193.218C26.8393 194.739 25.6073 196.55 24.7603 198.547C23.0498 202.58 23.0116 207.128 24.654 211.189C25.4672 213.2 26.6686 215.031 28.1896 216.578C29.7105 218.125 31.5212 219.357 33.5183 220.204C37.5515 221.914 42.0991 221.952 46.1605 220.31L87.7832 213.303C90.0888 212.92 92.3653 212.379 94.5969 211.685C95.4742 211.423 96.3405 211.126 97.1951 210.819C100.894 194.699 106.09 178.96 112.713 163.806L108.623 167.213Z" fill="#2F2E41"/>
<path d="M651.371 207.321L642.313 207.264L637.471 207.241L609.726 158.736C609.959 158.229 610.161 157.707 610.33 157.175C613.418 147.65 605.271 141.098 597.511 141.235C596.629 141.234 595.749 141.337 594.891 141.542C610.175 169.201 620.426 199.355 625.165 230.599C625.952 230.822 626.756 230.982 627.569 231.078C631.802 231.459 636.065 231.314 640.262 230.645C645.913 229.927 651.258 228.913 654.106 229.129L651.371 207.321Z" fill="#A0616A"/>
<path d="M681.237 208.244L647.943 203.618C646.724 203.45 645.484 203.725 644.451 204.395C643.418 205.064 642.66 206.082 642.315 207.264C642.244 207.503 642.191 207.747 642.155 207.993L639.489 227.17C639.309 228.515 639.666 229.876 640.483 230.96C641.3 232.043 642.511 232.761 643.853 232.958L677.146 237.584C681.037 238.126 684.984 237.101 688.119 234.733C691.253 232.366 693.319 228.85 693.862 224.959C694.404 221.068 693.379 217.122 691.011 213.987C688.643 210.852 685.128 208.786 681.237 208.244V208.244Z" fill="#6C63FF"/>
<path d="M627.57 231.078C622.964 199.583 612.786 169.16 597.512 141.235C572.958 96.3362 536.215 59.2909 491.519 34.37C446.823 9.44904 395.994 -2.33287 344.893 0.382592C293.791 3.09806 244.497 20.2003 202.693 49.7177C160.89 79.235 128.28 119.966 108.623 167.213V167.225C102.662 181.608 97.9683 196.485 94.5965 211.685C90.2741 231.177 88.1001 251.083 88.1133 271.049C88.1133 342.97 116.684 411.946 167.54 462.802C218.397 513.659 287.373 542.23 359.294 542.23C431.216 542.23 500.192 513.659 551.048 462.802C601.905 411.946 630.476 342.97 630.476 271.049C630.48 257.672 629.509 244.313 627.57 231.078V231.078ZM359.294 539.951C211.022 539.951 90.3922 419.321 90.3922 271.049C90.3495 234.144 97.9494 197.63 112.713 163.807C154.211 68.7451 249.124 2.14624 359.294 2.14624C460.646 2.14624 549.076 58.5132 594.892 141.542C610.176 169.201 620.427 199.355 625.166 230.599C627.186 243.988 628.2 257.509 628.197 271.049C628.197 419.321 507.567 539.951 359.294 539.951Z" fill="#9A96CB"/>
<path d="M271.274 243.702C258.08 243.7 245.295 239.118 235.104 230.737C224.913 222.357 217.947 210.699 215.396 197.754C212.845 184.809 214.867 171.379 221.117 159.759C227.367 148.139 237.457 139.049 249.664 134.041C261.87 129.034 275.437 128.419 288.047 132.302C300.657 136.185 311.528 144.325 318.803 155.332C326.078 166.339 329.306 179.531 327.937 192.654C326.567 205.777 320.684 218.017 311.293 227.285C300.65 237.835 286.26 243.739 271.274 243.702ZM271.274 132.039C260.456 132.039 249.88 135.246 240.885 141.256C231.889 147.265 224.878 155.808 220.738 165.802C216.598 175.797 215.514 186.795 217.625 197.405C219.735 208.015 224.944 217.762 232.594 225.411C240.243 233.061 249.99 238.27 260.6 240.381C271.21 242.491 282.208 241.407 292.203 237.267C302.197 233.127 310.74 226.116 316.749 217.12C322.759 208.125 325.966 197.55 325.966 186.731C325.949 172.231 320.182 158.33 309.929 148.076C299.675 137.823 285.774 132.056 271.274 132.039Z" fill="#9A96CB"/>
<path d="M446.744 243.702C435.477 243.702 424.462 240.361 415.093 234.101C405.724 227.841 398.422 218.943 394.11 208.533C389.798 198.123 388.67 186.668 390.868 175.617C393.066 164.566 398.492 154.415 406.46 146.447C414.427 138.48 424.579 133.054 435.63 130.855C446.681 128.657 458.136 129.785 468.546 134.097C478.956 138.409 487.854 145.712 494.114 155.08C500.374 164.449 503.715 175.464 503.715 186.732C503.698 201.836 497.69 216.317 487.01 226.997C476.33 237.678 461.849 243.685 446.744 243.702V243.702ZM446.744 132.04C435.927 132.04 425.353 135.247 416.359 141.257C407.365 147.266 400.355 155.808 396.215 165.802C392.076 175.796 390.993 186.792 393.103 197.401C395.213 208.011 400.422 217.756 408.071 225.405C415.72 233.053 425.465 238.262 436.074 240.373C446.684 242.483 457.68 241.4 467.674 237.26C477.668 233.121 486.209 226.111 492.219 217.117C498.229 208.123 501.436 197.549 501.436 186.732C501.42 172.231 495.652 158.33 485.399 148.077C475.146 137.823 461.244 132.056 446.744 132.04V132.04Z" fill="#9A96CB"/>
<path d="M310.493 226.474C300.043 236.783 285.954 242.563 271.274 242.563C256.595 242.563 242.506 236.783 232.056 226.474C235.549 219.022 241.093 212.719 248.038 208.304C254.984 203.889 263.044 201.544 271.274 201.544C279.505 201.544 287.564 203.889 294.51 208.304C301.456 212.719 307 219.022 310.493 226.474V226.474Z" fill="#9A96CB"/>
<path d="M485.964 226.474C475.513 236.783 461.424 242.563 446.745 242.563C432.066 242.563 417.977 236.783 407.526 226.474C411.019 219.022 416.563 212.719 423.509 208.304C430.455 203.889 438.515 201.544 446.745 201.544C454.975 201.544 463.035 203.889 469.981 208.304C476.927 212.719 482.471 219.022 485.964 226.474V226.474Z" fill="#9A96CB"/>
<path d="M322.548 280.164C322.548 273.871 342.953 268.77 368.125 268.77C393.296 268.77 413.701 273.871 413.701 280.164C413.701 286.457 393.296 309.789 368.125 309.789C342.953 309.789 322.548 286.457 322.548 280.164Z" fill="#9A96CB"/>
<path d="M216.013 278.455C226.71 278.455 235.383 269.782 235.383 259.084C235.383 248.387 226.71 239.714 216.013 239.714C205.315 239.714 196.643 248.387 196.643 259.084C196.643 269.782 205.315 278.455 216.013 278.455Z" fill="#FF6584"/>
<path d="M502.576 279.024C513.274 279.024 521.946 270.352 521.946 259.654C521.946 248.956 513.274 240.284 502.576 240.284C491.878 240.284 483.206 248.956 483.206 259.654C483.206 270.352 491.878 279.024 502.576 279.024Z" fill="#FF6584"/>
<path d="M88.0286 527.831L101.998 527.829L108.643 473.949L88.0264 473.95L88.0286 527.831Z" fill="#FFB8B8"/>
<path d="M128.938 543.079L85.0359 543.081L85.0352 526.118L111.975 526.117C116.474 526.117 120.789 527.904 123.97 531.085C127.151 534.266 128.938 538.58 128.938 543.079V543.079V543.079Z" fill="#2F2E41"/>
<path d="M18.5247 527.831L32.494 527.829L39.1391 473.949L18.5225 473.95L18.5247 527.831Z" fill="#FFB8B8"/>
<path d="M59.4346 543.079L15.532 543.081L15.5312 526.118L42.4715 526.117C46.9702 526.117 51.2847 527.904 54.4659 531.085C57.6471 534.266 59.4344 538.58 59.4346 543.079V543.079V543.079Z" fill="#2F2E41"/>
<path d="M91.8472 308.229L104.127 405.519C105.815 418.894 106.996 432.318 107.67 445.792L110.978 511.957C111.009 512.574 110.914 513.19 110.699 513.77C110.484 514.349 110.154 514.878 109.728 515.326C109.303 515.773 108.79 516.129 108.223 516.373C107.655 516.616 107.044 516.742 106.426 516.742H87.7894C86.6991 516.742 85.645 516.351 84.8183 515.64C83.9915 514.93 83.4469 513.946 83.2833 512.868L66.5224 402.443C66.4416 401.911 66.1749 401.424 65.7696 401.07C65.3642 400.716 64.8464 400.516 64.308 400.507C63.7696 400.498 63.2454 400.68 62.8283 401.02C62.4111 401.361 62.1281 401.838 62.0292 402.367L41.837 510.517C41.6373 511.489 41.1256 512.369 40.3799 513.024C39.6341 513.679 38.695 514.073 37.7052 514.145L20.5524 515.233C19.9156 515.28 19.2761 515.192 18.6753 514.976C18.0745 514.759 17.526 514.419 17.0651 513.977C16.6042 513.535 16.2414 513.001 16.0001 512.41C15.7588 511.819 15.6444 511.184 15.6643 510.545L21.2034 333.296L91.8472 308.229Z" fill="#2F2E41"/>
<path d="M37.4423 169.653C52.8981 169.653 65.4275 157.123 65.4275 141.668C65.4275 126.212 52.8981 113.682 37.4423 113.682C21.9865 113.682 9.45703 126.212 9.45703 141.668C9.45703 157.123 21.9865 169.653 37.4423 169.653Z" fill="#FFB8B8"/>
<path d="M15.506 335.575C22.3425 351.527 51.9674 362.921 58.8039 340.133C64.0909 322.517 85.0332 315.111 94.2738 312.661C95.4356 312.351 96.4289 311.597 97.0388 310.561C97.6487 309.524 97.8262 308.29 97.5329 307.124L71.7019 205.659C70.1974 199.748 67.201 194.323 62.9995 189.902C58.798 185.481 53.532 182.212 47.7057 180.409C27.1739 174.051 5.52503 187.143 2.04947 208.348C1.10021 214.293 0.495371 220.289 0.237975 226.305C-1.90455 271.072 11.0051 325.069 15.506 335.575Z" fill="#6C63FF"/>
<path d="M170.945 244.166C169.567 243.214 167.997 242.576 166.346 242.296C164.694 242.017 163.001 242.103 161.386 242.548C159.772 242.993 158.274 243.787 157 244.874C155.725 245.961 154.704 247.314 154.009 248.838L113.472 245.016L123.411 263.695L160.382 264.46C163.019 265.459 165.931 265.455 168.566 264.449C171.201 263.444 173.375 261.507 174.678 259.006C175.98 256.504 176.319 253.612 175.631 250.877C174.943 248.142 173.276 245.754 170.945 244.166V244.166Z" fill="#FFB8B8"/>
<path d="M150.788 264.94C150.306 265.475 149.717 265.903 149.059 266.197C148.401 266.49 147.689 266.641 146.969 266.641L94.0543 265.431C81.2461 265.422 68.8774 260.76 59.2491 252.313L27.5214 224.487C25.6163 223.445 23.9355 222.038 22.5749 220.345C21.2144 218.653 20.2009 216.709 19.5924 214.625C18.984 212.54 18.7924 210.356 19.0288 208.198C19.2653 206.039 19.925 203.949 20.9702 202.045C22.0154 200.142 23.4257 198.463 25.1202 197.106C26.8148 195.748 28.7605 194.738 30.8459 194.133C32.9314 193.528 35.1157 193.34 37.2738 193.58C39.4319 193.82 41.5215 194.483 43.4231 195.531L95.9705 236.996L147.134 246.856C148.158 247.107 149.079 247.667 149.774 248.459C150.469 249.251 150.904 250.237 151.02 251.284L152.071 260.959C152.183 261.997 151.976 263.044 151.478 263.962C151.287 264.314 151.056 264.642 150.788 264.94V264.94Z" fill="#2F2E41"/>
<path d="M16.2013 164.558C16.804 164.915 17.4808 165.129 18.1794 165.183C18.878 165.236 19.5796 165.129 20.2299 164.868C20.8802 164.607 21.4617 164.2 21.9294 163.678C22.3971 163.156 22.7384 162.534 22.927 161.859L22.9427 161.795C23.4506 159.671 23.0288 157.453 22.883 155.274C22.7373 153.095 22.9506 150.702 24.4346 149.1C27.2011 146.113 32.1229 147.696 36.1233 146.941C38.4664 146.418 40.5387 145.059 41.9523 143.119C43.3658 141.178 44.0238 138.789 43.803 136.398C43.746 135.945 43.6567 135.492 43.5565 135.039C43.3063 133.89 43.3256 132.7 43.613 131.561C43.9003 130.421 44.4478 129.364 45.2126 128.472C45.9773 127.579 46.9384 126.877 48.0205 126.418C49.1025 125.96 50.2761 125.759 51.449 125.831C55.4917 126.062 59.8556 127.287 63.2004 124.292C64.4267 123.111 65.278 121.595 65.6481 119.933C66.0182 118.271 65.8907 116.537 65.2816 114.948C63.3717 109.435 57.9737 106.549 52.632 104.962C46.0254 103.053 39.0765 102.641 32.2904 103.754C25.5043 104.868 19.0516 107.479 13.4015 111.399C10.0274 113.778 6.87646 116.766 5.43839 120.635C4.00032 124.505 4.69411 129.386 7.93688 131.94C5.42327 134.602 3.65321 137.877 2.80408 141.438C1.95494 144.999 2.05655 148.72 3.0987 152.229C4.70037 157.39 12.3444 162.338 16.2013 164.558Z" fill="#2F2E41"/>
<path d="M619.309 527.615H605.341L598.694 473.735L619.312 473.736L619.309 527.615Z" fill="#A0616A"/>
<path d="M595.361 525.902H622.301V542.865H578.398C578.398 540.637 578.837 538.431 579.69 536.373C580.542 534.316 581.792 532.446 583.367 530.87C584.942 529.295 586.812 528.046 588.87 527.194C590.928 526.341 593.133 525.902 595.361 525.902V525.902Z" fill="#2F2E41"/>
<path d="M718.438 527.615H704.469L697.823 473.735L718.441 473.736L718.438 527.615Z" fill="#A0616A"/>
<path d="M694.49 525.902H721.43V542.865H677.527C677.527 540.637 677.966 538.431 678.819 536.373C679.671 534.316 680.92 532.446 682.496 530.87C684.071 529.295 685.941 528.046 687.999 527.194C690.056 526.341 692.262 525.902 694.49 525.902V525.902Z" fill="#2F2E41"/>
<path d="M619.544 494.245C619.393 494.245 619.24 494.238 619.087 494.226L599.317 492.644C598.532 492.581 597.769 492.356 597.076 491.984C596.383 491.612 595.774 491.101 595.288 490.482C594.803 489.863 594.45 489.15 594.254 488.388C594.057 487.626 594.021 486.832 594.146 486.055L624.122 300.65L626.13 274.499C626.219 273.276 626.702 272.115 627.506 271.191C628.311 270.266 629.394 269.627 630.592 269.37L660.743 262.775C661.851 262.527 663.009 262.619 664.064 263.038C665.12 263.456 666.025 264.183 666.663 265.123L674.014 275.868C676.901 280.046 680.038 284.044 683.409 287.842C688.625 293.783 697.494 306.973 698.289 328.56C698.503 335.651 699.239 342.717 700.493 349.7L724.766 480.46C724.889 481.227 724.854 482.011 724.663 482.763C724.472 483.516 724.129 484.221 723.655 484.837C723.181 485.452 722.587 485.963 721.908 486.34C721.229 486.717 720.481 486.952 719.708 487.029L700.966 488.449C699.626 488.581 698.281 488.232 697.175 487.464C696.068 486.695 695.27 485.558 694.925 484.256L661.681 360.628C661.616 360.386 661.472 360.172 661.273 360.019C661.074 359.867 660.83 359.784 660.579 359.785C660.328 359.785 660.084 359.868 659.885 360.021C659.687 360.174 659.544 360.389 659.479 360.631L625.047 490.013C624.723 491.226 624.009 492.298 623.014 493.063C622.019 493.828 620.799 494.243 619.544 494.245Z" fill="#2F2E41"/>
<path d="M672.12 178.751C687.576 178.751 700.105 166.221 700.105 150.766C700.105 135.31 687.576 122.78 672.12 122.78C656.664 122.78 644.135 135.31 644.135 150.766C644.135 166.221 656.664 178.751 672.12 178.751Z" fill="#A0616A"/>
<path d="M624.686 278.706L624.107 238.742C621.976 213.182 633.295 199.761 643.167 193.01C645.713 191.292 648.581 190.108 651.598 189.531C654.615 188.953 657.717 188.994 660.718 189.651L682.742 194.413C685.809 195.081 688.708 196.364 691.265 198.185C693.822 200.006 695.983 202.326 697.617 205.006C699.18 207.534 700.207 210.356 700.633 213.298C701.058 216.24 700.874 219.238 700.092 222.106C698.562 227.473 695.169 232.12 690.522 235.211C671.597 248.57 670.264 271.01 670.252 271.236L670.229 271.7L624.686 278.706Z" fill="#6C63FF"/>
<path d="M563.561 255.339C562.42 256.701 561.003 257.806 559.404 258.58C557.805 259.355 556.061 259.782 554.285 259.834C552.509 259.885 550.742 259.559 549.101 258.878C547.46 258.197 545.982 257.176 544.764 255.882C533.727 244.307 551.769 226.927 562.848 238.527C563.239 238.927 563.601 239.353 563.933 239.803L619.796 238.414L626.464 226.219L646.957 234.176C643.023 240.277 638.505 264.222 628.215 263.056C626.866 263.093 564.94 255.437 563.561 255.339Z" fill="#A0616A"/>
<path d="M638.292 246.111L622.676 234.651C621.581 233.845 620.851 232.638 620.644 231.295C620.438 229.951 620.773 228.58 621.576 227.484L641.463 200.385C642.614 198.816 644.063 197.49 645.726 196.481C647.389 195.472 649.235 194.801 651.158 194.505C653.081 194.21 655.044 194.296 656.933 194.759C658.823 195.222 660.603 196.053 662.171 197.204C663.74 198.355 665.066 199.804 666.074 201.468C667.083 203.131 667.754 204.978 668.049 206.901C668.344 208.824 668.257 210.786 667.793 212.675C667.33 214.565 666.498 216.345 665.347 217.913L645.46 245.011C644.654 246.106 643.447 246.837 642.104 247.043C640.76 247.249 639.389 246.914 638.292 246.111V246.111Z" fill="#6C63FF"/>
<path d="M665.318 143.771C661.362 145.024 657.254 145.731 653.107 145.874C648.963 145.827 644.657 144.51 641.859 141.454C637.884 137.113 637.936 130.041 641.012 125.023C644.089 120.005 649.61 116.879 655.319 115.448C661.028 114.016 666.992 114.084 672.877 114.163C679.866 109.068 690.056 109.843 697.227 114.678C704.399 119.513 708.781 127.708 710.641 136.155C712.501 144.601 712.096 153.371 711.39 161.991C711.004 166.715 711.399 172.847 715.912 174.296C718.76 175.21 721.838 173.533 723.879 171.346C725.92 169.16 727.345 166.444 729.479 164.347C734.025 159.88 741.32 158.974 747.326 161.108C753.332 163.243 758.122 167.996 761.5 173.401C766.108 180.776 768.36 189.379 767.953 198.065C767.547 206.751 764.503 215.107 759.227 222.02C753.951 228.932 746.693 234.071 738.422 236.753C730.15 239.436 721.257 239.533 712.929 237.032C697.52 232.405 685.886 219.4 678.399 205.159C668.801 186.805 664.83 166.028 666.984 145.428L665.318 143.771Z" fill="#2F2E41"/>
</g>
</svg>
