<?xml version="1.0" standalone="no"?>
<!DOCTYPE svg PUBLIC "-//W3C//DTD SVG 20010904//EN"
 "http://www.w3.org/TR/2001/REC-SVG-20010904/DTD/svg10.dtd">
<svg version="1.0" xmlns="http://www.w3.org/2000/svg"
 width="192.000000pt" height="192.000000pt" viewBox="0 0 192.000000 192.000000"
 preserveAspectRatio="xMidYMid meet">
<metadata>
Created by potrace 1.11, written by Peter Selinger 2001-2013
</metadata>
<g transform="translate(0.000000,192.000000) scale(0.100000,-0.100000)"
fill="#000000" stroke="none">
<path d="M900 1444 c-164 -43 -301 -166 -361 -322 -27 -72 -37 -218 -19 -293
69 -300 382 -476 669 -378 80 28 136 64 200 129 176 179 196 466 46 669 -122
166 -342 246 -535 195z m229 -69 c237 -62 379 -300 324 -539 -38 -164 -184
-304 -349 -335 -313 -59 -589 234 -514 544 29 116 117 233 218 288 95 52 222
68 321 42z"/>
<path d="M888 1185 c-1 -1 -30 -6 -63 -10 -96 -11 -120 -25 -143 -87 -18 -48
-19 -54 -3 -59 9 -4 27 -1 41 6 14 7 51 20 82 28 l57 15 -24 -37 c-52 -79
-133 -217 -139 -238 -10 -32 25 -52 82 -48 56 5 64 13 91 95 12 36 43 106 69
155 46 87 48 90 85 93 99 8 83 -78 -26 -142 -88 -51 -87 -72 10 -169 90 -89
136 -119 167 -111 36 9 96 71 96 99 0 32 -11 37 -49 24 -37 -13 -55 -4 -120
62 -48 49 -48 49 39 94 97 50 121 101 77 166 -36 54 -66 64 -204 66 -66 1
-123 0 -125 -2z"/>
</g>
</svg>
